<?xml version="1.0" encoding="utf-8"?>
<!-- Generator: Adobe Illustrator 19.0.0, SVG Export Plug-In . SVG Version: 6.00 Build 0)  -->
<svg version="1.1" id="Layer_1" xmlns="http://www.w3.org/2000/svg" xmlns:xlink="http://www.w3.org/1999/xlink" x="0px" y="0px"
	 width="20px" height="20px" viewBox="-295 387 20 20" style="enable-background:new -295 387 20 20;" xml:space="preserve">
<path style="fill:#FFFFFF;" d="M-285,387c-5.5,0-10,4.5-10,10c0,5.5,4.5,10,10,10c5.5,0,10-4.5,10-10C-275,391.5-279.5,387-285,387
	L-285,387z M-282.5,397.4h-1.6v5.8h-2.4v-5.8h-1.1v-2h1.1V394c0-0.9,0.5-2.4,2.4-2.4l1.8,0v2h-1.3c-0.2,0-0.5,0.1-0.5,0.6v1.2h1.8
	L-282.5,397.4z"/>
</svg>
