<?xml version="1.0" encoding="utf-8"?>
<!-- Generator: Adobe Illustrator 19.0.0, SVG Export Plug-In . SVG Version: 6.00 Build 0)  -->
<svg version="1.1" id="Layer_1" xmlns="http://www.w3.org/2000/svg" xmlns:xlink="http://www.w3.org/1999/xlink" x="0px" y="0px"
	 width="25.1px" height="25px" viewBox="-292 384 25.1 25" style="enable-background:new -292 384 25.1 25;" xml:space="preserve">
<path style="fill:#30488C;" d="M-279.5,384c-6.9,0-12.5,5.6-12.5,12.5c0,6.9,5.6,12.5,12.5,12.5c6.9,0,12.5-5.6,12.5-12.5
	C-266.9,389.6-272.6,384-279.5,384L-279.5,384z M-276.4,396.9h-2v7.2h-3v-7.2h-1.4v-2.6h1.4v-1.7c0-1.2,0.6-3,3-3l2.2,0v2.5h-1.6
	c-0.3,0-0.6,0.1-0.6,0.7v1.5h2.3L-276.4,396.9z"/>
</svg>
