<?xml version="1.0" encoding="utf-8"?>
<!-- Generator: Adobe Illustrator 19.0.0, SVG Export Plug-In . SVG Version: 6.00 Build 0)  -->
<svg version="1.1" id="Layer_1" xmlns="http://www.w3.org/2000/svg" xmlns:xlink="http://www.w3.org/1999/xlink" x="0px" y="0px"
	 width="27px" height="27px" viewBox="-292 383 27 27" style="enable-background:new -292 383 27 27;" xml:space="preserve">
<path style="fill:#DB3221;" d="M-278.5,410c-7.4,0-13.5-6.1-13.5-13.5c0-7.4,6.1-13.5,13.5-13.5c7.4,0,13.5,6.1,13.5,13.5
	C-265,403.9-271.1,410-278.5,410z M-277.4,389.7h-4c-0.4,0-0.9,0.1-1.3,0.2c-1.5,0.5-2.5,1.8-2.5,3c0,1.8,1.4,3.2,3.3,3.2
	c0,0.1-0.1,0.3-0.1,0.4c0,0.3,0.1,0.5,0.2,0.8h-0.1c-1.8,0-3.4,0.9-4,2.2c-0.2,0.3-0.2,0.7-0.2,1c0,0.3,0.1,0.6,0.2,0.9
	c0.4,0.7,1.2,1.2,2.3,1.5c0.6,0.1,1.2,0.2,1.8,0.2c0.6,0,1.1-0.1,1.6-0.2c1.6-0.5,2.6-1.6,2.6-3c0-1.3-0.4-2.1-1.5-2.9
	c-0.5-0.3-0.9-0.8-0.9-1c0-0.3,0-0.4,0.6-0.9c0.8-0.6,1.3-1.5,1.3-2.3c0-0.8-0.2-1.5-0.7-2h0.3c0.1,0,0.1,0,0.2-0.1l0.9-0.7
	c0.1-0.1,0.2-0.2,0.1-0.4C-277.2,389.8-277.3,389.7-277.4,389.7z M-271,395.5c0-0.2-0.1-0.3-0.3-0.3h-2.3v-2.3
	c0-0.2-0.1-0.3-0.3-0.3h-0.7c-0.2,0-0.3,0.1-0.3,0.3v2.3h-2.3c-0.2,0-0.3,0.1-0.3,0.3v0.6c0,0.2,0.1,0.3,0.3,0.3h2.3v2.3
	c0,0.2,0.1,0.3,0.3,0.3h0.7c0.2,0,0.3-0.1,0.3-0.3v-2.3h2.3c0.2,0,0.3-0.1,0.3-0.3V395.5z M-281.3,395.2L-281.3,395.2L-281.3,395.2
	c-0.9,0-1.7-1.1-1.9-2.2c-0.1-0.7,0.1-1.3,0.4-1.6c0.2-0.2,0.5-0.4,0.8-0.4l0,0c0.9,0,1.7,1,1.9,2.2c0.1,0.7-0.1,1.3-0.4,1.7
	C-280.7,395-280.9,395.2-281.3,395.2z M-281.4,398.4c0.3,0,0.6,0,0.9,0.1c0.1,0.1,0.2,0.1,0.3,0.2c0.6,0.4,1.1,0.7,1.2,1.2
	c0,0.1,0,0.2,0,0.3c0,1.2-0.9,1.8-2.6,1.8c-1.3,0-2.3-0.8-2.3-1.8C-284,399.2-282.8,398.4-281.4,398.4L-281.4,398.4z"/>
</svg>
