<?xml version="1.0" encoding="utf-8"?>
<!-- Generator: Adobe Illustrator 19.0.0, SVG Export Plug-In . SVG Version: 6.00 Build 0)  -->
<svg version="1.1" id="Layer_1" xmlns="http://www.w3.org/2000/svg" xmlns:xlink="http://www.w3.org/1999/xlink" x="0px" y="0px"
	 width="20px" height="20px" viewBox="-295 387 20 20" style="enable-background:new -295 387 20 20;" xml:space="preserve">
<path style="fill:#FFFFFF;" d="M-285,407c-5.5,0-10-4.5-10-10c0-5.5,4.5-10,10-10c5.5,0,10,4.5,10,10C-275,402.5-279.5,407-285,407z
	 M-279.3,395.8v-2.3c0-1.2-1-2.2-2.2-2.2h-7c-1.2,0-2.2,1-2.2,2.2v7c0,1.2,1,2.2,2.2,2.2h7c1.2,0,2.2-1,2.2-2.2V395.8z
	 M-281.5,401.6h-7c-0.6,0-1.1-0.5-1.1-1.1v-4.7h1.7c-0.1,0.4-0.2,0.8-0.2,1.2c0,1.7,1.4,3.1,3.1,3.1c1.7,0,3.1-1.4,3.1-3.1
	c0-0.4-0.1-0.8-0.2-1.2h1.7v4.7C-280.4,401.1-280.9,401.6-281.5,401.6z M-282.6,392.6l1.7,0h0.3v1.9l-1.9,0L-282.6,392.6z M-285,399
	c-1.1,0-2-0.9-2-2c0-0.4,0.1-0.8,0.4-1.2c0.4-0.5,1-0.8,1.6-0.8c0.7,0,1.3,0.3,1.6,0.8c0.2,0.3,0.4,0.7,0.4,1.2
	C-283,398.1-283.9,399-285,399z"/>
</svg>
