<?xml version="1.0" encoding="utf-8"?>
<!-- Generator: Adobe Illustrator 19.0.0, SVG Export Plug-In . SVG Version: 6.00 Build 0)  -->
<svg version="1.1" id="Layer_1" xmlns="http://www.w3.org/2000/svg" xmlns:xlink="http://www.w3.org/1999/xlink" x="0px" y="0px"
	 width="141px" height="39px" viewBox="-235 377 141 39" style="enable-background:new -235 377 141 39;" xml:space="preserve">
<path style="fill:#0089A8;" d="M-95.6,389.7c-0.1,0.1-0.2,0.3-0.3,0.4c-0.6,0.6-1.4,0.9-2.3,0.9c-0.9,0-1.6-0.3-2.3-0.9
	c-0.6-0.6-0.9-1.4-0.9-2.2c0-0.9,0.3-1.6,0.9-2.2c0.6-0.6,1.4-0.9,2.3-0.9c0.9,0,1.7,0.3,2.3,0.9c0.1,0.1,0.2,0.3,0.3,0.4v-0.8h0.5
	v5.7h-0.5V389.7z M-95.6,387.3c-0.1-0.5-0.3-1-0.7-1.3c-0.5-0.5-1.1-0.8-1.9-0.8c-0.7,0-1.4,0.3-1.9,0.8c-0.5,0.5-0.8,1.1-0.8,1.8
	c0,0.7,0.3,1.3,0.8,1.8c0.5,0.5,1.2,0.8,1.9,0.8c0.7,0,1.4-0.3,1.9-0.8c0.4-0.4,0.6-0.8,0.7-1.3V387.3z M-106,391
	c-0.9,0-1.6-0.3-2.3-0.9c-0.1-0.1-0.2-0.2-0.3-0.4v3.3h-0.5v-7.8h0.5v0.8c0.1-0.1,0.2-0.3,0.3-0.4c0.6-0.6,1.4-0.9,2.3-0.9
	c0.9,0,1.7,0.3,2.3,0.9c0.6,0.6,0.9,1.4,0.9,2.2c0,0.9-0.3,1.6-0.9,2.2C-104.4,390.7-105.1,391-106,391z M-104.1,386
	c-0.5-0.5-1.1-0.8-1.9-0.8c-0.7,0-1.4,0.3-1.9,0.8c-0.4,0.4-0.6,0.8-0.7,1.3v1.1c0.1,0.5,0.3,0.9,0.7,1.3c0.5,0.5,1.1,0.8,1.9,0.8
	c0.7,0,1.4-0.3,1.9-0.8c0.5-0.5,0.8-1.1,0.8-1.8C-103.4,387.1-103.6,386.5-104.1,386z M-107.1,398.1c0,0.8-0.4,1.3-1.2,1.5
	c0.6,0.1,1.3,0.5,2,1.2c0.8,0.7,1.1,1.8,1.1,3.1c0,1.3-0.5,2.4-1.4,3.4c-0.9,0.9-1.8,1.4-2.7,1.4v0h-3.5v-13.4h2.8
	c0.8,0,1.5,0.3,2,0.8C-107.4,396.7-107.1,397.4-107.1,398.1z M-111,407h1.7v0c0.4,0,0.8-0.3,1.4-0.9c0.6-0.6,0.9-1.3,0.9-2.2
	c0-0.8-0.3-1.5-0.9-2.1c-0.6-0.6-1.3-0.9-2.2-0.9h-0.9V407z M-109.2,397.4c-0.2-0.2-0.5-0.3-0.8-0.3h-1v2.1h1.2
	c0.3,0,0.5-0.1,0.7-0.3c0.2-0.2,0.3-0.4,0.3-0.7C-108.9,397.8-109,397.6-109.2,397.4z M-113.8,391c-0.9,0-1.6-0.3-2.3-0.9
	c-0.6-0.6-0.9-1.4-0.9-2.2c0-0.9,0.3-1.6,0.9-2.2c0.6-0.6,1.4-0.9,2.3-0.9c0.9,0,1.7,0.3,2.3,0.9c0.6,0.6,0.9,1.4,0.9,2.2
	c0,0.9-0.3,1.6-0.9,2.2C-112.2,390.7-112.9,391-113.8,391z M-111.9,386c-0.5-0.5-1.1-0.8-1.9-0.8c-0.7,0-1.4,0.3-1.9,0.8
	c-0.5,0.5-0.8,1.1-0.8,1.8c0,0.7,0.3,1.3,0.8,1.8c0.5,0.5,1.1,0.8,1.9,0.8c0.7,0,1.4-0.3,1.9-0.8c0.5-0.5,0.8-1.1,0.8-1.8
	C-111.1,387.1-111.4,386.5-111.9,386z M-117.2,406.9c-1.4,1.3-3,2-4.9,2s-3.6-0.7-4.9-2c-1.4-1.3-2.1-3-2.1-4.9
	c0-1.9,0.7-3.5,2.1-4.9c1.4-1.3,3-2,4.9-2s3.6,0.7,4.9,2c1.4,1.3,2.1,3,2.1,4.9C-115.2,403.9-115.8,405.5-117.2,406.9z
	 M-118.5,398.4c-1-1-2.2-1.5-3.7-1.5c-1.4,0-2.7,0.5-3.7,1.5c-1,1-1.5,2.2-1.5,3.6s0.5,2.6,1.5,3.6c1,1,2.2,1.5,3.7,1.5
	c1.4,0,2.7-0.5,3.7-1.5s1.5-2.2,1.5-3.6S-117.5,399.4-118.5,398.4z M-120.5,390.9h-0.5v-5.1h-2.4v-0.5h5.3v0.5h-2.4V390.9z
	 M-124.5,390.9l-2-3.5l-1.2,1.3v2.2h-0.5v-5.7h0.5v2.6l2.3-2.6h0.7l-1.4,1.7l2.3,3.9H-124.5z M-132.6,391c-0.9,0-1.6-0.3-2.3-0.9
	c-0.6-0.6-0.9-1.4-0.9-2.2c0-0.9,0.3-1.6,0.9-2.2c0.6-0.6,1.4-0.9,2.3-0.9c0.9,0,1.7,0.3,2.3,0.9c0.6,0.6,0.9,1.4,0.9,2.2
	c0,0.9-0.3,1.6-0.9,2.2C-131,390.7-131.7,391-132.6,391z M-130.7,386c-0.5-0.5-1.2-0.8-1.9-0.8c-0.7,0-1.4,0.3-1.9,0.8
	c-0.5,0.5-0.8,1.1-0.8,1.8c0,0.7,0.3,1.3,0.8,1.8c0.5,0.5,1.1,0.8,1.9,0.8c0.7,0,1.4-0.3,1.9-0.8c0.5-0.5,0.8-1.1,0.8-1.8
	C-129.9,387.1-130.2,386.5-130.7,386z M-137.2,390.9h-4.6v2.2h-0.5v-2.7h0.5c0,0,0,0,0,0c0.8-0.8,1.3-2,1.3-3.6c0-0.3,0-0.6-0.1-0.9
	c0-0.2-0.1-0.4-0.1-0.5h3.6v5.1h0.5v2.7h-0.5V390.9z M-137.7,385.7h-2.4c0,0.3,0,0.6,0,0.9c0,1.6-0.4,2.8-1.1,3.7h3.5V385.7z
	 M-144.6,403.2h-4.2v5.5h-1.8v-13.4h1.8v6.1h4.2v-6.1h1.8v13.4h-1.8V403.2z M-148.3,389.7c-0.1,0.1-0.2,0.3-0.3,0.4
	c-0.6,0.6-1.4,0.9-2.3,0.9c-0.9,0-1.6-0.3-2.3-0.9c-0.6-0.6-0.9-1.4-0.9-2.2c0-0.9,0.3-1.6,0.9-2.2c0.6-0.6,1.4-0.9,2.3-0.9
	c0.9,0,1.7,0.3,2.3,0.9c0.1,0.1,0.2,0.3,0.3,0.4v-0.8h0.5v5.7h-0.5V389.7z M-148.3,387.3c-0.1-0.5-0.3-1-0.7-1.3
	c-0.5-0.5-1.1-0.8-1.9-0.8c-0.7,0-1.4,0.3-1.9,0.8c-0.5,0.5-0.8,1.1-0.8,1.8c0,0.7,0.3,1.3,0.8,1.8c0.5,0.5,1.2,0.8,1.9,0.8
	c0.7,0,1.4-0.3,1.9-0.8c0.4-0.4,0.6-0.8,0.7-1.3V387.3z M-152.9,408.7h-1.8v-10.1l-7.4,10.1h-1.9v-13.4h1.8v10.4l7.6-10.4h1.7V408.7
	z M-155.4,390.9l-2-3.5l-1.2,1.3v2.2h-0.5v-5.7h0.5v2.6l2.3-2.6h0.7l-1.4,1.7l2.3,3.9H-155.4z M-160.9,386l-3.7,4.8v0h-0.5v-5.7h0.5
	v4.8l3.7-4.8h0.6v5.7h-0.5V386z M-167.7,408.7h-7v2.9h-1.8v-4.7h0.4c1.8-2,2.6-4.6,2.6-7.7c0-0.9-0.2-2.2-0.6-3.9h7.4l0,11.6h0.7
	v4.7h-1.8V408.7z M-168.4,397.1h-3.4c0.1,0.5,0.1,1.2,0.1,2.2c0,3.6-0.7,6.2-2.1,7.7h5.3V397.1z M-166.8,388.1h-3.9v2.8h-0.5v-5.7
	h0.5v2.3h3.9v-2.3h0.5v5.7h-0.5V388.1z M-172.9,386l-3.7,4.8v0h-0.5v-5.7h0.5v4.8l3.7-4.8h0.6v5.7h-0.5V386z M-178.9,385.7h-3.9v3.8
	c0,0.8-0.4,1.2-1.2,1.3v-0.5c0.5-0.1,0.7-0.3,0.7-0.8v-4.4h4.9v5.7h-0.5V385.7z M-185.5,390.9l-3.3-5.1l-0.5,0.6v4.5h-0.5v-9.2h0.5
	v3.9l3-3.9h0.7l-2.8,3.7l3.6,5.5H-185.5z M-183.8,395.1c1.9,0,3.6,0.7,4.9,2c1.4,1.3,2.1,3,2.1,4.9c0,1.9-0.7,3.5-2.1,4.9
	c-1.4,1.3-3,2-4.9,2c-1.9,0-3.6-0.7-4.9-2c-1.4-1.3-2.1-3-2.1-4.9c0-1.9,0.7-3.5,2.1-4.9C-187.4,395.8-185.8,395.1-183.8,395.1z
	 M-187.5,405.6c1,1,2.2,1.5,3.7,1.5c1.4,0,2.7-0.5,3.7-1.5c1-1,1.5-2.2,1.5-3.6s-0.5-2.6-1.5-3.6c-1-1-2.2-1.5-3.7-1.5
	c-1.4,0-2.7,0.5-3.7,1.5c-1,1-1.5,2.2-1.5,3.6S-188.5,404.6-187.5,405.6z M-215.1,416c-11,0-19.9-8.7-19.9-19.5s8.9-19.5,19.9-19.5
	c11,0,19.9,8.7,19.9,19.5S-204.1,416-215.1,416z M-196.8,396.5c0-4.8-1.9-9.3-5.4-12.7c-3.5-3.4-8.1-5.3-12.9-5.3s-9.5,1.9-12.9,5.3
	c-3.5,3.4-5.4,7.9-5.4,12.7c0,4.8,1.9,9.3,5.4,12.7c3.5,3.4,8.1,5.3,12.9,5.3s9.5-1.9,12.9-5.3
	C-198.7,405.8-196.8,401.3-196.8,396.5z M-215.1,413.1c-9.3,0-16.9-7.4-16.9-16.6c0-9.2,7.6-16.6,16.9-16.6s16.9,7.4,16.9,16.6
	C-198.2,405.6-205.8,413.1-215.1,413.1z M-211.2,401c0.3,0,0.5-0.2,0.5-0.5c0-0.3-0.2-0.5-0.5-0.5c-0.3,0-0.5,0.2-0.5,0.5
	C-211.7,400.8-211.5,401-211.2,401z M-212.2,399.9c0.2,0,0.3-0.1,0.3-0.3c0-0.2-0.1-0.3-0.3-0.3c-0.2,0-0.3,0.1-0.3,0.3
	C-212.4,399.8-212.3,399.9-212.2,399.9z M-228.3,400.5c0.6,0,1.1-0.5,1.1-1.1c0-0.6-0.5-1.1-1.1-1.1c-0.6,0-1.1,0.5-1.1,1.1
	C-229.4,400-228.9,400.5-228.3,400.5z M-229,397.7c0.7,0,1.2-0.5,1.2-1.2c0-0.7-0.5-1.2-1.2-1.2c-0.7,0-1.2,0.5-1.2,1.2
	C-230.2,397.2-229.7,397.7-229,397.7z M-228.3,392.5c-0.6,0-1.1,0.5-1.1,1.1c0,0.6,0.5,1.1,1.1,1.1c0.6,0,1.1-0.5,1.1-1.1
	C-227.1,393-227.6,392.5-228.3,392.5z M-226,390.4c-0.6,0-1.1,0.5-1.1,1.1c0,0.6,0.5,1.1,1.1,1.1c0.6,0,1.1-0.5,1.1-1.1
	C-224.9,390.9-225.4,390.4-226,390.4z M-226,400.3c-0.6,0-1.1,0.5-1.1,1.1c0,0.6,0.5,1.1,1.1,1.1c0.6,0,1.1-0.5,1.1-1.1
	C-224.9,400.8-225.4,400.3-226,400.3z M-223.3,389.8c-0.5,0-0.9,0.4-0.9,0.9c0,0.5,0.4,0.9,0.9,0.9c0.5,0,0.9-0.4,0.9-0.9
	C-222.4,390.1-222.8,389.8-223.3,389.8z M-223.3,401.2c-0.6,0-1.1,0.5-1.1,1.1c0,0.6,0.5,1.1,1.1,1.1c0.6,0,1.1-0.5,1.1-1.1
	C-222.1,401.7-222.7,401.2-223.3,401.2z M-220.3,402.6c0.6,0,1.1-0.5,1.1-1.1c0-0.6-0.5-1.1-1.1-1.1c-0.6,0-1.1,0.5-1.1,1.1
	C-221.4,402.1-220.9,402.6-220.3,402.6z M-220.7,390.5c-0.4,0-0.7,0.3-0.7,0.7s0.3,0.7,0.7,0.7c0.4,0,0.7-0.3,0.7-0.7
	S-220.3,390.5-220.7,390.5z M-219,392c-0.3,0-0.5,0.2-0.5,0.5c0,0.3,0.2,0.5,0.5,0.5c0.3,0,0.5-0.2,0.5-0.5
	C-218.6,392.2-218.8,392-219,392z M-219.4,399.5c0,0.6,0.5,1.1,1.1,1.1c0.6,0,1.1-0.5,1.1-1.1c0-0.6-0.5-1.1-1.1-1.1
	C-218.9,398.4-219.4,398.9-219.4,399.5z M-218.1,393.1c-0.2,0-0.3,0.1-0.3,0.3c0,0.2,0.1,0.3,0.3,0.3c0.2,0,0.3-0.1,0.3-0.3
	C-217.8,393.2-217.9,393.1-218.1,393.1z M-216.2,396.4c-0.6,0-1.1,0.5-1.1,1.1c0,0.6,0.5,1.1,1.1,1.1c0.6,0,1.1-0.5,1.1-1.1
	C-215,396.9-215.6,396.4-216.2,396.4z M-214,394.4c-0.6,0-1.1,0.5-1.1,1.1c0,0.6,0.5,1.1,1.1,1.1c0.6,0,1.1-0.5,1.1-1.1
	C-212.9,394.9-213.4,394.4-214,394.4z M-212,392.4c-0.6,0-1.1,0.5-1.1,1.1c0,0.6,0.5,1.1,1.1,1.1c0.6,0,1.1-0.5,1.1-1.1
	C-210.8,392.9-211.4,392.4-212,392.4z M-202,392.5c-0.6,0-1.1,0.5-1.1,1.1c0,0.6,0.5,1.1,1.1,1.1c0.6,0,1.1-0.5,1.1-1.1
	C-200.8,393-201.3,392.5-202,392.5z M-201.2,395.3c-0.7,0-1.2,0.5-1.2,1.2c0,0.7,0.6,1.2,1.2,1.2c0.7,0,1.2-0.5,1.2-1.2
	C-200,395.8-200.6,395.3-201.2,395.3z M-202,400.5c0.6,0,1.1-0.5,1.1-1.1c0-0.6-0.5-1.1-1.1-1.1c-0.6,0-1.1,0.5-1.1,1.1
	C-203.1,400-202.6,400.5-202,400.5z M-204.2,402.6c0.6,0,1.1-0.5,1.1-1.1c0-0.6-0.5-1.1-1.1-1.1c-0.6,0-1.1,0.5-1.1,1.1
	C-205.3,402.1-204.8,402.6-204.2,402.6z M-204.2,392.7c0.6,0,1.1-0.5,1.1-1.1c0-0.6-0.5-1.1-1.1-1.1c-0.6,0-1.1,0.5-1.1,1.1
	C-205.3,392.2-204.8,392.7-204.2,392.7z M-206.9,403.2c0.5,0,0.9-0.4,0.9-0.9c0-0.5-0.4-0.9-0.9-0.9c-0.5,0-0.9,0.4-0.9,0.9
	C-207.8,402.9-207.4,403.2-206.9,403.2z M-206.9,391.8c0.6,0,1.1-0.5,1.1-1.1c0-0.6-0.5-1.1-1.1-1.1c-0.6,0-1.1,0.5-1.1,1.1
	C-208.1,391.3-207.6,391.8-206.9,391.8z M-209.9,390.4c-0.6,0-1.1,0.5-1.1,1.1c0,0.6,0.5,1.1,1.1,1.1c0.6,0,1.1-0.5,1.1-1.1
	C-208.8,390.9-209.3,390.4-209.9,390.4z M-209.5,402.5c0.4,0,0.7-0.3,0.7-0.7c0-0.4-0.3-0.7-0.7-0.7c-0.4,0-0.7,0.3-0.7,0.7
	C-210.2,402.2-209.9,402.5-209.5,402.5z M-138.8,407h6v-11.7h1.8v11.6h0.7v4.7h-1.8v-2.9h-8.4v-13.4h1.8V407z M-99,395.3l5,13.4
	h-1.9l-1.8-4.7h-3.6l-1.8,4.7h-1.9l5-13.4H-99z M-98.3,402.3l-1.2-3.1l-1.2,3.1H-98.3z"/>
</svg>
