<?xml version="1.0" encoding="utf-8"?>
<!-- Generator: Adobe Illustrator 19.0.0, SVG Export Plug-In . SVG Version: 6.00 Build 0)  -->
<svg version="1.1" id="Layer_1" xmlns="http://www.w3.org/2000/svg" xmlns:xlink="http://www.w3.org/1999/xlink" x="0px" y="0px"
	 width="26px" height="26px" viewBox="-292 384 26 26" style="enable-background:new -292 384 26 26;" xml:space="preserve">
<path style="fill:#FB890E;" d="M-279,410c-7.2,0-13-5.8-13-13c0-7.2,5.8-13,13-13c7.2,0,13,5.8,13,13C-266,404.2-271.8,410-279,410z
	 M-279,388c-2.5,0-4.6,2-4.6,4.6c0,2.5,2,4.6,4.5,4.6c2.5,0,4.6-2,4.6-4.5C-274.4,390-276.4,388-279,388z M-273.8,397.6
	c-0.3-0.4-0.7-0.6-1.2-0.5c-0.2,0.1-0.5,0.2-0.7,0.3c-2,1.4-4.8,1.3-6.8-0.1c-0.1-0.1-0.2-0.1-0.3-0.2c-0.6-0.3-1.1-0.1-1.4,0.3
	c-0.4,0.5-0.3,1.1,0.1,1.5c0.1,0.1,0.3,0.2,0.4,0.3c1.1,0.8,2.3,1.2,3.8,1.3c-0.1,0.1-0.2,0.2-0.2,0.2c-1,1-2.1,2.1-3.1,3.1
	c-0.2,0.2-0.4,0.4-0.4,0.8c0,0.5,0.3,0.9,0.7,1.1c0.4,0.2,0.9,0.1,1.2-0.2c0.8-0.8,1.6-1.6,2.4-2.4c0.2-0.2,0.3-0.2,0.5,0
	c0.8,0.8,1.6,1.6,2.4,2.4c0.2,0.2,0.4,0.4,0.7,0.4c0.5,0,0.9-0.3,1.2-0.7c0.2-0.4,0.1-0.9-0.2-1.2c-1-1.1-2.1-2.1-3.1-3.1
	c-0.1-0.1-0.1-0.1-0.2-0.3c0.8-0.1,1.5-0.2,2.2-0.5c0.7-0.3,1.4-0.7,2-1.3C-273.5,398.5-273.5,398.1-273.8,397.6z M-279,394.8
	c-1.2,0-2.2-1-2.3-2.2c0-1.3,1-2.3,2.2-2.3c1.2,0,2.2,1,2.2,2.2C-276.8,393.8-277.7,394.8-279,394.8z"/>
</svg>
