<?xml version="1.0" encoding="utf-8"?>
<!-- Generator: Adobe Illustrator 19.0.0, SVG Export Plug-In . SVG Version: 6.00 Build 0)  -->
<svg version="1.1" id="Layer_1" xmlns="http://www.w3.org/2000/svg" xmlns:xlink="http://www.w3.org/1999/xlink" x="0px" y="0px"
	 width="20px" height="20px" viewBox="-295 387 20 20" style="enable-background:new -295 387 20 20;" xml:space="preserve">
<path style="fill:#F00D63;" d="M-285,387c-5.5,0-10,4.5-10,10c0,5.5,4.5,10,10,10c5.5,0,10-4.5,10-10C-275,391.5-279.5,387-285,387
	L-285,387z M-279.9,398.1c0.5,0.5,1,0.9,1.4,1.4c0.2,0.2,0.4,0.5,0.5,0.7c0.2,0.4,0,0.8-0.3,0.8l-2,0c-0.5,0-1-0.2-1.3-0.5
	c-0.3-0.3-0.5-0.6-0.8-0.9c-0.1-0.1-0.2-0.2-0.4-0.3c-0.3-0.2-0.5-0.1-0.7,0.2c-0.2,0.3-0.2,0.6-0.2,1c0,0.5-0.2,0.6-0.7,0.6
	c-1,0-2-0.1-2.9-0.6c-0.8-0.5-1.4-1.1-2-1.8c-1.1-1.4-1.9-3-2.6-4.6c-0.2-0.4,0-0.6,0.4-0.6c0.7,0,1.3,0,2,0c0.3,0,0.5,0.2,0.6,0.4
	c0.4,0.9,0.8,1.7,1.4,2.5c0.1,0.2,0.3,0.4,0.5,0.6c0.2,0.2,0.4,0.1,0.5-0.2c0.1-0.2,0.1-0.3,0.1-0.5c0.1-0.6,0.1-1.2,0-1.9
	c-0.1-0.4-0.3-0.6-0.7-0.7c-0.2,0-0.2-0.1-0.1-0.2c0.2-0.2,0.3-0.3,0.6-0.3h2.3c0.4,0.1,0.4,0.2,0.5,0.6l0,2.6
	c0,0.1,0.1,0.6,0.3,0.7c0.2,0.1,0.3-0.1,0.5-0.2c0.6-0.6,0.9-1.3,1.3-2c0.2-0.3,0.3-0.6,0.4-1c0.1-0.2,0.2-0.4,0.5-0.4l2.2,0
	c0.1,0,0.1,0,0.2,0c0.4,0.1,0.5,0.2,0.4,0.6c-0.2,0.6-0.5,1.1-0.9,1.5c-0.4,0.5-0.8,1-1.1,1.5C-280.4,397.4-280.3,397.7-279.9,398.1
	L-279.9,398.1z"/>
</svg>
