<svg xmlns="http://www.w3.org/2000/svg" height="168" viewBox="0 0 190 168" width="190"><svg height="46" viewBox="-223 374 164 46" width="164" x="2" y="2"><path d="M-60.9 389c-.1.2-.2.3-.4.5-.7.7-1.6 1.1-2.7 1.1-1 0-1.9-.4-2.7-1.1-.7-.7-1.1-1.6-1.1-2.6s.4-1.9 1.1-2.6c.7-.7 1.6-1.1 2.7-1.1 1 0 1.9.4 2.7 1.1.1.1.3.3.4.5v-.9h.6v6.7h-.6V389zm0-2.8c-.1-.6-.4-1.1-.9-1.6-.6-.6-1.3-.9-2.2-.9-.9 0-1.6.3-2.2.9-.6.6-.9 1.3-.9 2.2 0 .9.3 1.6.9 2.2.6.6 1.3.9 2.2.9.9 0 1.6-.3 2.2-.9.5-.5.7-1 .9-1.6v-1.2zm-12.1 4.3c-1 0-1.9-.4-2.7-1.1l-.4-.4v3.9h-.6v-9.2h.6v.9c.1-.2.2-.3.4-.4.7-.7 1.6-1.1 2.7-1.1 1 0 1.9.4 2.7 1.1.7.7 1.1 1.6 1.1 2.6s-.4 1.9-1.1 2.6c-.8.8-1.6 1.1-2.7 1.1zm2.2-5.9c-.6-.6-1.3-.9-2.2-.9-.9 0-1.6.3-2.2.9-.4.4-.7 1-.8 1.5v1.3c.1.6.4 1.1.8 1.5.6.6 1.3.9 2.2.9.9 0 1.6-.3 2.2-.9.6-.6.9-1.3.9-2.2 0-.8-.3-1.5-.9-2.1zm-3.5 14.3c0 .9-.5 1.5-1.4 1.7.7.1 1.5.6 2.4 1.5s1.3 2.1 1.3 3.6-.5 2.9-1.6 4c-1 1.1-2.1 1.6-3.1 1.6h-4.1v-15.8h3.2c.9 0 1.7.3 2.4 1 .6.7.9 1.5.9 2.4zm-4.5 10.5h2c.4 0 .9-.4 1.6-1 .7-.7 1-1.6 1-2.5 0-1-.3-1.8-1-2.5s-1.5-1-2.5-1h-1.1v7zm2.1-11.4c-.2-.2-.6-.4-.9-.4h-1.2v2.5h1.3c.3 0 .6-.1.8-.3.2-.2.4-.5.4-.9s-.1-.6-.4-.9zm-5.3-7.5c-1 0-1.9-.4-2.7-1.1-.7-.7-1.1-1.6-1.1-2.6s.4-1.9 1.1-2.6c.7-.7 1.6-1.1 2.7-1.1 1 0 1.9.4 2.7 1.1.7.7 1.1 1.6 1.1 2.6s-.4 1.9-1.1 2.6c-.8.8-1.7 1.1-2.7 1.1zm2.2-5.9c-.6-.6-1.3-.9-2.2-.9-.9 0-1.6.3-2.2.9-.6.6-.9 1.3-.9 2.2 0 .9.3 1.6.9 2.2.6.6 1.3.9 2.2.9.9 0 1.6-.3 2.2-.9.6-.6.9-1.3.9-2.2 0-.9-.3-1.6-.9-2.2zm-6.2 24.6c-1.6 1.6-3.5 2.4-5.8 2.4s-4.2-.8-5.8-2.4c-1.6-1.6-2.4-3.5-2.4-5.7s.8-4.1 2.4-5.7c1.6-1.6 3.5-2.4 5.8-2.4s4.2.8 5.8 2.4c1.6 1.6 2.4 3.5 2.4 5.7s-.8 4.1-2.4 5.7zm-1.5-10c-1.2-1.2-2.6-1.8-4.3-1.8s-3.1.6-4.3 1.8-1.8 2.6-1.8 4.3c0 1.7.6 3.1 1.8 4.3 1.2 1.2 2.6 1.8 4.3 1.8 1.7 0 3.1-.6 4.3-1.8 1.2-1.2 1.8-2.6 1.8-4.3 0-1.7-.6-3.1-1.8-4.3zm-2.3-8.9h-.6v-6.1h-2.8v-.6h6.2v.6h-2.8v6.1zm-4.7 0l-2.3-4.1-1.4 1.5v2.6h-.6v-6.7h.6v3.1l2.6-3.1h.8l-1.7 2 2.6 4.6h-.6zm-9.4.2c-1 0-1.9-.4-2.7-1.1-.7-.7-1.1-1.6-1.1-2.6s.4-1.9 1.1-2.6c.7-.7 1.6-1.1 2.7-1.1 1 0 1.9.4 2.7 1.1.7.7 1.1 1.6 1.1 2.6s-.4 1.9-1.1 2.6c-.8.8-1.7 1.1-2.7 1.1zm2.2-5.9c-.6-.6-1.3-.9-2.2-.9-.9 0-1.6.3-2.2.9-.6.6-.9 1.3-.9 2.2 0 .9.3 1.6.9 2.2.6.6 1.3.9 2.2.9.9 0 1.6-.3 2.2-.9.6-.6.9-1.3.9-2.2 0-.9-.3-1.6-.9-2.2zm-7.6 5.7h-5.3v2.5h-.6v-3.2h.5c1-1 1.5-2.4 1.5-4.3 0-.4 0-.8-.1-1.1 0-.2-.1-.4-.1-.6h4.1v6h.5v3.2h-.6v-2.5zm-.5-6h-2.8c0 .3.1.7.1 1.1 0 1.8-.4 3.3-1.3 4.3h4.1v-5.4zm-8.1 20.6h-4.9v6.5h-2.1v-15.8h2.1v7.2h4.9v-7.2h2.1v15.8h-2.1v-6.5zm-4.2-15.9c-.1.2-.2.3-.4.5-.7.7-1.6 1.1-2.7 1.1-1 0-1.9-.4-2.7-1.1-.7-.7-1.1-1.6-1.1-2.6s.4-1.9 1.1-2.6c.7-.7 1.6-1.1 2.7-1.1 1 0 1.9.4 2.7 1.1.1.1.3.3.4.5v-.9h.6v6.7h-.6V389zm0-2.8c-.1-.6-.4-1.1-.9-1.6-.6-.6-1.3-.9-2.2-.9-.9 0-1.6.3-2.2.9-.6.6-.9 1.3-.9 2.2 0 .9.3 1.6.9 2.2.6.6 1.3.9 2.2.9.9 0 1.6-.3 2.2-.9.5-.5.7-1 .9-1.6v-1.2zm-5.5 25.2h-2.1v-12l-8.6 12h-2.2v-15.8h2.1v12.3l8.8-12.3h2v15.8zm-2.9-21.1l-2.3-4.1-1.4 1.5v2.6h-.6v-6.7h.6v3.1l2.6-3.1h.8l-1.7 2 2.6 4.6h-.6zm-6.3-5.7l-4.3 5.7h-.6v-6.7h.6v5.7l4.3-5.7h.7v6.7h-.6v-5.7zm-7.9 26.8h-8.1v3.4h-2.1v-5.5h.4c2.1-2.3 3.1-5.4 3.1-9.1 0-1.1-.2-2.6-.7-4.6h8.6v13.7h.8v5.5h-2v-3.4zm-.8-13.7h-3.9c.1.5.2 1.4.2 2.6 0 4.3-.8 7.3-2.5 9.1h6.2v-11.7zm1.8-10.7h-4.5v3.3h-.6v-6.7h.6v2.8h4.5v-2.8h.6v6.7h-.6V387zm-7-2.4l-4.3 5.7h-.6v-6.7h.6v5.7l4.3-5.7h.7v6.7h-.6v-5.7zm-7-.3h-4.5v4.5c0 1-.5 1.5-1.4 1.5v-.6c.6-.1.8-.4.8-.9v-5.1h5.7v6.7h-.6v-6.1zm-7.7 6l-3.9-6-.6.7v5.3h-.6v-10.9h.6v4.6l3.5-4.6h.8l-3.3 4.4 4.2 6.5h-.7zm1.9 5.1c2.2 0 4.2.8 5.8 2.4 1.6 1.6 2.4 3.5 2.4 5.7s-.8 4.1-2.4 5.7c-1.6 1.6-3.5 2.4-5.8 2.4-2.2 0-4.2-.8-5.8-2.4-1.6-1.6-2.4-3.5-2.4-5.7s.8-4.1 2.4-5.7c1.6-1.6 3.6-2.4 5.8-2.4zm-4.3 12.4c1.2 1.2 2.6 1.8 4.3 1.8 1.7 0 3.1-.6 4.3-1.8 1.2-1.2 1.8-2.6 1.8-4.3 0-1.7-.6-3.1-1.8-4.3s-2.6-1.8-4.3-1.8-3.1.6-4.3 1.8-1.8 2.6-1.8 4.3c0 1.7.6 3.1 1.8 4.3zm-32.1 12.2c-12.8 0-23.1-10.3-23.1-23s10.4-23 23.1-23c12.8 0 23.1 10.3 23.1 23s-10.3 23-23.1 23zm21.3-23c0-5.7-2.2-11-6.2-15s-9.4-6.2-15.1-6.2c-5.7 0-11 2.2-15.1 6.2-4 4-6.2 9.3-6.2 15s2.2 11 6.2 15 9.4 6.2 15.1 6.2c5.7 0 11-2.2 15.1-6.2 4-4 6.2-9.3 6.2-15zm-21.3 19.5c-10.9 0-19.7-8.8-19.7-19.5 0-10.8 8.8-19.5 19.7-19.5 10.9 0 19.7 8.7 19.7 19.5s-8.8 19.5-19.7 19.5zm4.6-14.1c.3 0 .6-.2.6-.5s-.2-.5-.6-.5c-.3 0-.5.2-.5.5-.1.2.2.5.5.5zm-1.1-1.4c.2 0 .3-.1.3-.3 0-.2-.1-.3-.3-.3-.2 0-.3.1-.3.3-.1.2.1.3.3.3zm-18.8.7c.7 0 1.3-.6 1.3-1.3 0-.7-.6-1.3-1.3-1.3-.7 0-1.3.6-1.3 1.3 0 .7.6 1.3 1.3 1.3zm-.8-3.3c.8 0 1.4-.6 1.4-1.4 0-.8-.6-1.4-1.4-1.4-.8 0-1.4.6-1.4 1.4 0 .8.6 1.4 1.4 1.4zm.8-6.1c-.7 0-1.3.6-1.3 1.3 0 .7.6 1.3 1.3 1.3.7 0 1.3-.6 1.3-1.3.1-.7-.5-1.3-1.3-1.3zm2.6-2.5c-.7 0-1.3.6-1.3 1.3 0 .7.6 1.3 1.3 1.3.7 0 1.3-.6 1.3-1.3 0-.7-.6-1.3-1.3-1.3zm0 11.7c-.7 0-1.3.6-1.3 1.3s.6 1.3 1.3 1.3c.7 0 1.3-.6 1.3-1.3s-.6-1.3-1.3-1.3zm3.2-12.5c-.6 0-1.1.5-1.1 1 0 .6.5 1 1.1 1 .6 0 1.1-.5 1.1-1s-.5-1-1.1-1zm0 13.6c-.7 0-1.3.6-1.3 1.3 0 .7.6 1.3 1.3 1.3.7 0 1.3-.6 1.3-1.3 0-.7-.5-1.3-1.3-1.3zm3.5 1.6c.7 0 1.3-.6 1.3-1.3 0-.7-.6-1.3-1.3-1.3-.7 0-1.3.6-1.3 1.3 0 .7.6 1.3 1.3 1.3zm-.5-14.3c-.4 0-.8.4-.8.8s.4.8.8.8c.5 0 .8-.4.8-.8s-.4-.8-.8-.8zm2 1.7c-.3 0-.5.2-.5.5s.2.5.5.5.6-.2.6-.5c-.1-.2-.3-.5-.6-.5zm-.4 8.9c0 .7.6 1.3 1.3 1.3.7 0 1.3-.6 1.3-1.3 0-.7-.6-1.3-1.3-1.3-.7 0-1.3.6-1.3 1.3zm1.5-7.5c-.2 0-.3.1-.3.3s.1.3.3.3c.2 0 .3-.1.3-.3s-.1-.3-.3-.3zm2.2 3.9c-.7 0-1.3.6-1.3 1.3 0 .7.6 1.3 1.3 1.3.7 0 1.3-.6 1.3-1.3 0-.7-.6-1.3-1.3-1.3zm2.5-2.4c-.7 0-1.3.6-1.3 1.3 0 .7.6 1.3 1.3 1.3.7 0 1.3-.6 1.3-1.3 0-.7-.6-1.3-1.3-1.3zm2.4-2.4c-.7 0-1.3.6-1.3 1.3 0 .7.6 1.3 1.3 1.3s1.3-.6 1.3-1.3c0-.7-.6-1.3-1.3-1.3zm11.6.2c-.7 0-1.3.6-1.3 1.3 0 .7.6 1.3 1.3 1.3.7 0 1.3-.6 1.3-1.3.1-.7-.5-1.3-1.3-1.3zm.9 3.3c-.8 0-1.4.6-1.4 1.4 0 .8.6 1.4 1.4 1.4.8 0 1.4-.6 1.4-1.4 0-.8-.7-1.4-1.4-1.4zm-.9 6.1c.7 0 1.3-.6 1.3-1.3 0-.7-.6-1.3-1.3-1.3-.7 0-1.3.6-1.3 1.3 0 .7.6 1.3 1.3 1.3zm-2.5 2.5c.7 0 1.3-.6 1.3-1.3 0-.7-.6-1.3-1.3-1.3-.7 0-1.3.6-1.3 1.3-.1.7.5 1.3 1.3 1.3zm0-11.7c.7 0 1.3-.6 1.3-1.3s-.6-1.3-1.3-1.3c-.7 0-1.3.6-1.3 1.3s.5 1.3 1.3 1.3zm-3.3 12.5c.6 0 1.1-.5 1.1-1 0-.6-.5-1-1.1-1s-1.1.5-1.1 1c.1.5.6 1 1.1 1zm0-13.6c.7 0 1.3-.6 1.3-1.3 0-.7-.6-1.3-1.3-1.3-.7 0-1.3.6-1.3 1.3 0 .7.6 1.3 1.3 1.3zm-3.4-1.6c-.7 0-1.3.6-1.3 1.3 0 .7.6 1.3 1.3 1.3.7 0 1.3-.6 1.3-1.3 0-.7-.6-1.3-1.3-1.3zm.5 14.3c.4 0 .8-.4.8-.8s-.4-.8-.8-.8-.8.4-.8.8.3.8.8.8zm82.2 5.3h6.9v-13.8h2.1v13.7h.8v5.5h-2.1v-3.4h-9.8v-15.8h2.1v13.8zm46.3-13.8l5.8 15.8h-2.2l-2-5.6h-4.2l-2 5.6h-2.2l5.8-15.8h1zm.8 8.2l-1.4-3.7-1.4 3.7h2.8z" fill="#fff"/></svg><svg height="46" viewBox="-223 374 164 46" width="164" x="2" y="50"><path d="M-60.9 389c-.1.2-.2.3-.4.5-.7.7-1.6 1.1-2.7 1.1-1 0-1.9-.4-2.7-1.1-.7-.7-1.1-1.6-1.1-2.6s.4-1.9 1.1-2.6c.7-.7 1.6-1.1 2.7-1.1 1 0 1.9.4 2.7 1.1.1.1.3.3.4.5v-.9h.6v6.7h-.6V389zm0-2.8c-.1-.6-.4-1.1-.9-1.6-.6-.6-1.3-.9-2.2-.9-.9 0-1.6.3-2.2.9-.6.6-.9 1.3-.9 2.2 0 .9.3 1.6.9 2.2.6.6 1.3.9 2.2.9.9 0 1.6-.3 2.2-.9.5-.5.7-1 .9-1.6v-1.2zm-12.1 4.3c-1 0-1.9-.4-2.7-1.1l-.4-.4v3.9h-.6v-9.2h.6v.9c.1-.2.2-.3.4-.4.7-.7 1.6-1.1 2.7-1.1 1 0 1.9.4 2.7 1.1.7.7 1.1 1.6 1.1 2.6s-.4 1.9-1.1 2.6c-.8.8-1.6 1.1-2.7 1.1zm2.2-5.9c-.6-.6-1.3-.9-2.2-.9-.9 0-1.6.3-2.2.9-.4.4-.7 1-.8 1.5v1.3c.1.6.4 1.1.8 1.5.6.6 1.3.9 2.2.9.9 0 1.6-.3 2.2-.9.6-.6.9-1.3.9-2.2 0-.8-.3-1.5-.9-2.1zm-3.5 14.3c0 .9-.5 1.5-1.4 1.7.7.1 1.5.6 2.4 1.5s1.3 2.1 1.3 3.6-.5 2.9-1.6 4c-1 1.1-2.1 1.6-3.1 1.6h-4.1v-15.8h3.2c.9 0 1.7.3 2.4 1 .6.7.9 1.5.9 2.4zm-4.5 10.5h2c.4 0 .9-.4 1.6-1 .7-.7 1-1.6 1-2.5 0-1-.3-1.8-1-2.5s-1.5-1-2.5-1h-1.1v7zm2.1-11.4c-.2-.2-.6-.4-.9-.4h-1.2v2.5h1.3c.3 0 .6-.1.8-.3.2-.2.4-.5.4-.9s-.1-.6-.4-.9zm-5.3-7.5c-1 0-1.9-.4-2.7-1.1-.7-.7-1.1-1.6-1.1-2.6s.4-1.9 1.1-2.6c.7-.7 1.6-1.1 2.7-1.1 1 0 1.9.4 2.7 1.1.7.7 1.1 1.6 1.1 2.6s-.4 1.9-1.1 2.6c-.8.8-1.7 1.1-2.7 1.1zm2.2-5.9c-.6-.6-1.3-.9-2.2-.9-.9 0-1.6.3-2.2.9-.6.6-.9 1.3-.9 2.2 0 .9.3 1.6.9 2.2.6.6 1.3.9 2.2.9.9 0 1.6-.3 2.2-.9.6-.6.9-1.3.9-2.2 0-.9-.3-1.6-.9-2.2zm-6.2 24.6c-1.6 1.6-3.5 2.4-5.8 2.4s-4.2-.8-5.8-2.4c-1.6-1.6-2.4-3.5-2.4-5.7s.8-4.1 2.4-5.7c1.6-1.6 3.5-2.4 5.8-2.4s4.2.8 5.8 2.4c1.6 1.6 2.4 3.5 2.4 5.7s-.8 4.1-2.4 5.7zm-1.5-10c-1.2-1.2-2.6-1.8-4.3-1.8s-3.1.6-4.3 1.8-1.8 2.6-1.8 4.3c0 1.7.6 3.1 1.8 4.3 1.2 1.2 2.6 1.8 4.3 1.8 1.7 0 3.1-.6 4.3-1.8 1.2-1.2 1.8-2.6 1.8-4.3 0-1.7-.6-3.1-1.8-4.3zm-2.3-8.9h-.6v-6.1h-2.8v-.6h6.2v.6h-2.8v6.1zm-4.7 0l-2.3-4.1-1.4 1.5v2.6h-.6v-6.7h.6v3.1l2.6-3.1h.8l-1.7 2 2.6 4.6h-.6zm-9.4.2c-1 0-1.9-.4-2.7-1.1-.7-.7-1.1-1.6-1.1-2.6s.4-1.9 1.1-2.6c.7-.7 1.6-1.1 2.7-1.1 1 0 1.9.4 2.7 1.1.7.7 1.1 1.6 1.1 2.6s-.4 1.9-1.1 2.6c-.8.8-1.7 1.1-2.7 1.1zm2.2-5.9c-.6-.6-1.3-.9-2.2-.9-.9 0-1.6.3-2.2.9-.6.6-.9 1.3-.9 2.2 0 .9.3 1.6.9 2.2.6.6 1.3.9 2.2.9.9 0 1.6-.3 2.2-.9.6-.6.9-1.3.9-2.2 0-.9-.3-1.6-.9-2.2zm-7.6 5.7h-5.3v2.5h-.6v-3.2h.5c1-1 1.5-2.4 1.5-4.3 0-.4 0-.8-.1-1.1 0-.2-.1-.4-.1-.6h4.1v6h.5v3.2h-.6v-2.5zm-.5-6h-2.8c0 .3.1.7.1 1.1 0 1.8-.4 3.3-1.3 4.3h4.1v-5.4zm-8.1 20.6h-4.9v6.5h-2.1v-15.8h2.1v7.2h4.9v-7.2h2.1v15.8h-2.1v-6.5zm-4.2-15.9c-.1.2-.2.3-.4.5-.7.7-1.6 1.1-2.7 1.1-1 0-1.9-.4-2.7-1.1-.7-.7-1.1-1.6-1.1-2.6s.4-1.9 1.1-2.6c.7-.7 1.6-1.1 2.7-1.1 1 0 1.9.4 2.7 1.1.1.1.3.3.4.5v-.9h.6v6.7h-.6V389zm0-2.8c-.1-.6-.4-1.1-.9-1.6-.6-.6-1.3-.9-2.2-.9-.9 0-1.6.3-2.2.9-.6.6-.9 1.3-.9 2.2 0 .9.3 1.6.9 2.2.6.6 1.3.9 2.2.9.9 0 1.6-.3 2.2-.9.5-.5.7-1 .9-1.6v-1.2zm-5.5 25.2h-2.1v-12l-8.6 12h-2.2v-15.8h2.1v12.3l8.8-12.3h2v15.8zm-2.9-21.1l-2.3-4.1-1.4 1.5v2.6h-.6v-6.7h.6v3.1l2.6-3.1h.8l-1.7 2 2.6 4.6h-.6zm-6.3-5.7l-4.3 5.7h-.6v-6.7h.6v5.7l4.3-5.7h.7v6.7h-.6v-5.7zm-7.9 26.8h-8.1v3.4h-2.1v-5.5h.4c2.1-2.3 3.1-5.4 3.1-9.1 0-1.1-.2-2.6-.7-4.6h8.6v13.7h.8v5.5h-2v-3.4zm-.8-13.7h-3.9c.1.5.2 1.4.2 2.6 0 4.3-.8 7.3-2.5 9.1h6.2v-11.7zm1.8-10.7h-4.5v3.3h-.6v-6.7h.6v2.8h4.5v-2.8h.6v6.7h-.6V387zm-7-2.4l-4.3 5.7h-.6v-6.7h.6v5.7l4.3-5.7h.7v6.7h-.6v-5.7zm-7-.3h-4.5v4.5c0 1-.5 1.5-1.4 1.5v-.6c.6-.1.8-.4.8-.9v-5.1h5.7v6.7h-.6v-6.1zm-7.7 6l-3.9-6-.6.7v5.3h-.6v-10.9h.6v4.6l3.5-4.6h.8l-3.3 4.4 4.2 6.5h-.7zm1.9 5.1c2.2 0 4.2.8 5.8 2.4 1.6 1.6 2.4 3.5 2.4 5.7s-.8 4.1-2.4 5.7c-1.6 1.6-3.5 2.4-5.8 2.4-2.2 0-4.2-.8-5.8-2.4-1.6-1.6-2.4-3.5-2.4-5.7s.8-4.1 2.4-5.7c1.6-1.6 3.6-2.4 5.8-2.4zm-4.3 12.4c1.2 1.2 2.6 1.8 4.3 1.8 1.7 0 3.1-.6 4.3-1.8 1.2-1.2 1.8-2.6 1.8-4.3 0-1.7-.6-3.1-1.8-4.3s-2.6-1.8-4.3-1.8-3.1.6-4.3 1.8-1.8 2.6-1.8 4.3c0 1.7.6 3.1 1.8 4.3zm-32.1 12.2c-12.8 0-23.1-10.3-23.1-23s10.4-23 23.1-23c12.8 0 23.1 10.3 23.1 23s-10.3 23-23.1 23zm21.3-23c0-5.7-2.2-11-6.2-15s-9.4-6.2-15.1-6.2c-5.7 0-11 2.2-15.1 6.2-4 4-6.2 9.3-6.2 15s2.2 11 6.2 15 9.4 6.2 15.1 6.2c5.7 0 11-2.2 15.1-6.2 4-4 6.2-9.3 6.2-15zm-21.3 19.5c-10.9 0-19.7-8.8-19.7-19.5 0-10.8 8.8-19.5 19.7-19.5 10.9 0 19.7 8.7 19.7 19.5s-8.8 19.5-19.7 19.5zm4.6-14.1c.3 0 .6-.2.6-.5s-.2-.5-.6-.5c-.3 0-.5.2-.5.5-.1.2.2.5.5.5zm-1.1-1.4c.2 0 .3-.1.3-.3 0-.2-.1-.3-.3-.3-.2 0-.3.1-.3.3-.1.2.1.3.3.3zm-18.8.7c.7 0 1.3-.6 1.3-1.3 0-.7-.6-1.3-1.3-1.3-.7 0-1.3.6-1.3 1.3 0 .7.6 1.3 1.3 1.3zm-.8-3.3c.8 0 1.4-.6 1.4-1.4 0-.8-.6-1.4-1.4-1.4-.8 0-1.4.6-1.4 1.4 0 .8.6 1.4 1.4 1.4zm.8-6.1c-.7 0-1.3.6-1.3 1.3 0 .7.6 1.3 1.3 1.3.7 0 1.3-.6 1.3-1.3.1-.7-.5-1.3-1.3-1.3zm2.6-2.5c-.7 0-1.3.6-1.3 1.3 0 .7.6 1.3 1.3 1.3.7 0 1.3-.6 1.3-1.3 0-.7-.6-1.3-1.3-1.3zm0 11.7c-.7 0-1.3.6-1.3 1.3s.6 1.3 1.3 1.3c.7 0 1.3-.6 1.3-1.3s-.6-1.3-1.3-1.3zm3.2-12.5c-.6 0-1.1.5-1.1 1 0 .6.5 1 1.1 1 .6 0 1.1-.5 1.1-1s-.5-1-1.1-1zm0 13.6c-.7 0-1.3.6-1.3 1.3 0 .7.6 1.3 1.3 1.3.7 0 1.3-.6 1.3-1.3 0-.7-.5-1.3-1.3-1.3zm3.5 1.6c.7 0 1.3-.6 1.3-1.3 0-.7-.6-1.3-1.3-1.3-.7 0-1.3.6-1.3 1.3 0 .7.6 1.3 1.3 1.3zm-.5-14.3c-.4 0-.8.4-.8.8s.4.8.8.8c.5 0 .8-.4.8-.8s-.4-.8-.8-.8zm2 1.7c-.3 0-.5.2-.5.5s.2.5.5.5.6-.2.6-.5c-.1-.2-.3-.5-.6-.5zm-.4 8.9c0 .7.6 1.3 1.3 1.3.7 0 1.3-.6 1.3-1.3 0-.7-.6-1.3-1.3-1.3-.7 0-1.3.6-1.3 1.3zm1.5-7.5c-.2 0-.3.1-.3.3s.1.3.3.3c.2 0 .3-.1.3-.3s-.1-.3-.3-.3zm2.2 3.9c-.7 0-1.3.6-1.3 1.3 0 .7.6 1.3 1.3 1.3.7 0 1.3-.6 1.3-1.3 0-.7-.6-1.3-1.3-1.3zm2.5-2.4c-.7 0-1.3.6-1.3 1.3 0 .7.6 1.3 1.3 1.3.7 0 1.3-.6 1.3-1.3 0-.7-.6-1.3-1.3-1.3zm2.4-2.4c-.7 0-1.3.6-1.3 1.3 0 .7.6 1.3 1.3 1.3s1.3-.6 1.3-1.3c0-.7-.6-1.3-1.3-1.3zm11.6.2c-.7 0-1.3.6-1.3 1.3 0 .7.6 1.3 1.3 1.3.7 0 1.3-.6 1.3-1.3.1-.7-.5-1.3-1.3-1.3zm.9 3.3c-.8 0-1.4.6-1.4 1.4 0 .8.6 1.4 1.4 1.4.8 0 1.4-.6 1.4-1.4 0-.8-.7-1.4-1.4-1.4zm-.9 6.1c.7 0 1.3-.6 1.3-1.3 0-.7-.6-1.3-1.3-1.3-.7 0-1.3.6-1.3 1.3 0 .7.6 1.3 1.3 1.3zm-2.5 2.5c.7 0 1.3-.6 1.3-1.3 0-.7-.6-1.3-1.3-1.3-.7 0-1.3.6-1.3 1.3-.1.7.5 1.3 1.3 1.3zm0-11.7c.7 0 1.3-.6 1.3-1.3s-.6-1.3-1.3-1.3c-.7 0-1.3.6-1.3 1.3s.5 1.3 1.3 1.3zm-3.3 12.5c.6 0 1.1-.5 1.1-1 0-.6-.5-1-1.1-1s-1.1.5-1.1 1c.1.5.6 1 1.1 1zm0-13.6c.7 0 1.3-.6 1.3-1.3 0-.7-.6-1.3-1.3-1.3-.7 0-1.3.6-1.3 1.3 0 .7.6 1.3 1.3 1.3zm-3.4-1.6c-.7 0-1.3.6-1.3 1.3 0 .7.6 1.3 1.3 1.3.7 0 1.3-.6 1.3-1.3 0-.7-.6-1.3-1.3-1.3zm.5 14.3c.4 0 .8-.4.8-.8s-.4-.8-.8-.8-.8.4-.8.8.3.8.8.8zm82.2 5.3h6.9v-13.8h2.1v13.7h.8v5.5h-2.1v-3.4h-9.8v-15.8h2.1v13.8zm46.3-13.8l5.8 15.8h-2.2l-2-5.6h-4.2l-2 5.6h-2.2l5.8-15.8h1zm.8 8.2l-1.4-3.7-1.4 3.7h2.8z" fill="#d8385f"/></svg><svg height="39" viewBox="-235 377 141 39" width="141" x="2" y="98"><path d="M-95.6 389.7c-.1.1-.2.3-.3.4-.6.6-1.4.9-2.3.9-.9 0-1.6-.3-2.3-.9-.6-.6-.9-1.4-.9-2.2 0-.9.3-1.6.9-2.2.6-.6 1.4-.9 2.3-.9.9 0 1.7.3 2.3.9.1.1.2.3.3.4v-.8h.5v5.7h-.5v-1.3zm0-2.4c-.1-.5-.3-1-.7-1.3-.5-.5-1.1-.8-1.9-.8-.7 0-1.4.3-1.9.8s-.8 1.1-.8 1.8.3 1.3.8 1.8 1.2.8 1.9.8 1.4-.3 1.9-.8c.4-.4.6-.8.7-1.3v-1zM-106 391c-.9 0-1.6-.3-2.3-.9-.1-.1-.2-.2-.3-.4v3.3h-.5v-7.8h.5v.8c.1-.1.2-.3.3-.4.6-.6 1.4-.9 2.3-.9.9 0 1.7.3 2.3.9.6.6.9 1.4.9 2.2 0 .9-.3 1.6-.9 2.2-.7.7-1.4 1-2.3 1zm1.9-5c-.5-.5-1.1-.8-1.9-.8-.7 0-1.4.3-1.9.8-.4.4-.6.8-.7 1.3v1.1c.1.5.3.9.7 1.3.5.5 1.1.8 1.9.8.7 0 1.4-.3 1.9-.8s.8-1.1.8-1.8c-.1-.8-.3-1.4-.8-1.9zm-3 12.1c0 .8-.4 1.3-1.2 1.5.6.1 1.3.5 2 1.2.8.7 1.1 1.8 1.1 3.1s-.5 2.4-1.4 3.4c-.9.9-1.8 1.4-2.7 1.4h-3.5v-13.4h2.8c.8 0 1.5.3 2 .8.6.6.9 1.3.9 2zm-3.9 8.9h1.7c.4 0 .8-.3 1.4-.9.6-.6.9-1.3.9-2.2 0-.8-.3-1.5-.9-2.1-.6-.6-1.3-.9-2.2-.9h-.9v6.1zm1.8-9.6c-.2-.2-.5-.3-.8-.3h-1v2.1h1.2c.3 0 .5-.1.7-.3.2-.2.3-.4.3-.7-.1-.4-.2-.6-.4-.8zm-4.6-6.4c-.9 0-1.6-.3-2.3-.9-.6-.6-.9-1.4-.9-2.2 0-.9.3-1.6.9-2.2.6-.6 1.4-.9 2.3-.9.9 0 1.7.3 2.3.9.6.6.9 1.4.9 2.2 0 .9-.3 1.6-.9 2.2-.7.6-1.4.9-2.3.9zm1.9-5c-.5-.5-1.1-.8-1.9-.8-.7 0-1.4.3-1.9.8s-.8 1.1-.8 1.8.3 1.3.8 1.8 1.1.8 1.9.8c.7 0 1.4-.3 1.9-.8s.8-1.1.8-1.8-.3-1.3-.8-1.8zm-5.3 20.9c-1.4 1.3-3 2-4.9 2s-3.6-.7-4.9-2c-1.4-1.3-2.1-3-2.1-4.9 0-1.9.7-3.5 2.1-4.9 1.4-1.3 3-2 4.9-2s3.6.7 4.9 2c1.4 1.3 2.1 3 2.1 4.9-.1 1.9-.7 3.5-2.1 4.9zm-1.3-8.5c-1-1-2.2-1.5-3.7-1.5-1.4 0-2.7.5-3.7 1.5s-1.5 2.2-1.5 3.6.5 2.6 1.5 3.6 2.2 1.5 3.7 1.5c1.4 0 2.7-.5 3.7-1.5s1.5-2.2 1.5-3.6-.5-2.6-1.5-3.6zm-2-7.5h-.5v-5.1h-2.4v-.5h5.3v.5h-2.4v5.1zm-4 0l-2-3.5-1.2 1.3v2.2h-.5v-5.7h.5v2.6l2.3-2.6h.7l-1.4 1.7 2.3 3.9h-.7zm-8.1.1c-.9 0-1.6-.3-2.3-.9-.6-.6-.9-1.4-.9-2.2 0-.9.3-1.6.9-2.2.6-.6 1.4-.9 2.3-.9.9 0 1.7.3 2.3.9.6.6.9 1.4.9 2.2 0 .9-.3 1.6-.9 2.2-.7.6-1.4.9-2.3.9zm1.9-5c-.5-.5-1.2-.8-1.9-.8s-1.4.3-1.9.8-.8 1.1-.8 1.8.3 1.3.8 1.8 1.1.8 1.9.8c.7 0 1.4-.3 1.9-.8s.8-1.1.8-1.8-.3-1.3-.8-1.8zm-6.5 4.9h-4.6v2.2h-.5v-2.7h.5c.8-.8 1.3-2 1.3-3.6 0-.3 0-.6-.1-.9 0-.2-.1-.4-.1-.5h3.6v5.1h.5v2.7h-.5v-2.3zm-.5-5.2h-2.4v.9c0 1.6-.4 2.8-1.1 3.7h3.5v-4.6zm-6.9 17.5h-4.2v5.5h-1.8v-13.4h1.8v6.1h4.2v-6.1h1.8v13.4h-1.8v-5.5zm-3.7-13.5c-.1.1-.2.3-.3.4-.6.6-1.4.9-2.3.9-.9 0-1.6-.3-2.3-.9-.6-.6-.9-1.4-.9-2.2 0-.9.3-1.6.9-2.2.6-.6 1.4-.9 2.3-.9.9 0 1.7.3 2.3.9.1.1.2.3.3.4v-.8h.5v5.7h-.5v-1.3zm0-2.4c-.1-.5-.3-1-.7-1.3-.5-.5-1.1-.8-1.9-.8-.7 0-1.4.3-1.9.8s-.8 1.1-.8 1.8.3 1.3.8 1.8 1.2.8 1.9.8 1.4-.3 1.9-.8c.4-.4.6-.8.7-1.3v-1zm-4.6 21.4h-1.8v-10.1l-7.4 10.1h-1.9v-13.4h1.8v10.4l7.6-10.4h1.7v13.4zm-2.5-17.8l-2-3.5-1.2 1.3v2.2h-.5v-5.7h.5v2.6l2.3-2.6h.7l-1.4 1.7 2.3 3.9h-.7zm-5.5-4.9l-3.7 4.8h-.5v-5.7h.5v4.8l3.7-4.8h.6v5.7h-.5V386zm-6.8 22.7h-7v2.9h-1.8v-4.7h.4c1.8-2 2.6-4.6 2.6-7.7 0-.9-.2-2.2-.6-3.9h7.4v11.6h.7v4.7h-1.8v-2.9zm-.7-11.6h-3.4c.1.5.1 1.2.1 2.2 0 3.6-.7 6.2-2.1 7.7h5.3v-9.9zm1.6-9h-3.9v2.8h-.5v-5.7h.5v2.3h3.9v-2.3h.5v5.7h-.5v-2.8zm-6.1-2.1l-3.7 4.8h-.5v-5.7h.5v4.8l3.7-4.8h.6v5.7h-.5V386zm-6-.3h-3.9v3.8c0 .8-.4 1.2-1.2 1.3v-.5c.5-.1.7-.3.7-.8v-4.4h4.9v5.7h-.5v-5.1zm-6.6 5.2l-3.3-5.1-.5.6v4.5h-.5v-9.2h.5v3.9l3-3.9h.7l-2.8 3.7 3.6 5.5h-.7zm1.7 4.2c1.9 0 3.6.7 4.9 2 1.4 1.3 2.1 3 2.1 4.9 0 1.9-.7 3.5-2.1 4.9-1.4 1.3-3 2-4.9 2-1.9 0-3.6-.7-4.9-2-1.4-1.3-2.1-3-2.1-4.9 0-1.9.7-3.5 2.1-4.9 1.3-1.3 2.9-2 4.9-2zm-3.7 10.5c1 1 2.2 1.5 3.7 1.5 1.4 0 2.7-.5 3.7-1.5s1.5-2.2 1.5-3.6-.5-2.6-1.5-3.6-2.2-1.5-3.7-1.5c-1.4 0-2.7.5-3.7 1.5s-1.5 2.2-1.5 3.6.5 2.6 1.5 3.6zm-27.6 10.4c-11 0-19.9-8.7-19.9-19.5s8.9-19.5 19.9-19.5c11 0 19.9 8.7 19.9 19.5s-8.9 19.5-19.9 19.5zm18.3-19.5c0-4.8-1.9-9.3-5.4-12.7-3.5-3.4-8.1-5.3-12.9-5.3s-9.5 1.9-12.9 5.3c-3.5 3.4-5.4 7.9-5.4 12.7 0 4.8 1.9 9.3 5.4 12.7 3.5 3.4 8.1 5.3 12.9 5.3s9.5-1.9 12.9-5.3c3.5-3.4 5.4-7.9 5.4-12.7zm-18.3 16.6c-9.3 0-16.9-7.4-16.9-16.6 0-9.2 7.6-16.6 16.9-16.6s16.9 7.4 16.9 16.6c0 9.1-7.6 16.6-16.9 16.6zm3.9-12.1c.3 0 .5-.2.5-.5s-.2-.5-.5-.5-.5.2-.5.5.2.5.5.5zm-1-1.1c.2 0 .3-.1.3-.3 0-.2-.1-.3-.3-.3-.2 0-.3.1-.3.3.1.2.2.3.3.3zm-16.1.6c.6 0 1.1-.5 1.1-1.1 0-.6-.5-1.1-1.1-1.1-.6 0-1.1.5-1.1 1.1 0 .6.5 1.1 1.1 1.1zm-.7-2.8c.7 0 1.2-.5 1.2-1.2s-.5-1.2-1.2-1.2-1.2.5-1.2 1.2.5 1.2 1.2 1.2zm.7-5.2c-.6 0-1.1.5-1.1 1.1 0 .6.5 1.1 1.1 1.1.6 0 1.1-.5 1.1-1.1.1-.6-.4-1.1-1.1-1.1zm2.3-2.1c-.6 0-1.1.5-1.1 1.1 0 .6.5 1.1 1.1 1.1.6 0 1.1-.5 1.1-1.1 0-.6-.5-1.1-1.1-1.1zm0 9.9c-.6 0-1.1.5-1.1 1.1 0 .6.5 1.1 1.1 1.1.6 0 1.1-.5 1.1-1.1 0-.6-.5-1.1-1.1-1.1zm2.7-10.5c-.5 0-.9.4-.9.9s.4.9.9.9.9-.4.9-.9c0-.6-.4-.9-.9-.9zm0 11.4c-.6 0-1.1.5-1.1 1.1 0 .6.5 1.1 1.1 1.1.6 0 1.1-.5 1.1-1.1.1-.6-.5-1.1-1.1-1.1zm3 1.4c.6 0 1.1-.5 1.1-1.1 0-.6-.5-1.1-1.1-1.1-.6 0-1.1.5-1.1 1.1 0 .6.5 1.1 1.1 1.1zm-.4-12.1c-.4 0-.7.3-.7.7s.3.7.7.7c.4 0 .7-.3.7-.7s-.3-.7-.7-.7zm1.7 1.5c-.3 0-.5.2-.5.5s.2.5.5.5.5-.2.5-.5c-.1-.3-.3-.5-.5-.5zm-.4 7.5c0 .6.5 1.1 1.1 1.1.6 0 1.1-.5 1.1-1.1 0-.6-.5-1.1-1.1-1.1-.6 0-1.1.5-1.1 1.1zm1.3-6.4c-.2 0-.3.1-.3.3 0 .2.1.3.3.3.2 0 .3-.1.3-.3 0-.2-.1-.3-.3-.3zm1.9 3.3c-.6 0-1.1.5-1.1 1.1 0 .6.5 1.1 1.1 1.1.6 0 1.1-.5 1.1-1.1.1-.6-.5-1.1-1.1-1.1zm2.2-2c-.6 0-1.1.5-1.1 1.1 0 .6.5 1.1 1.1 1.1.6 0 1.1-.5 1.1-1.1 0-.6-.5-1.1-1.1-1.1zm2-2c-.6 0-1.1.5-1.1 1.1 0 .6.5 1.1 1.1 1.1.6 0 1.1-.5 1.1-1.1.1-.6-.5-1.1-1.1-1.1zm10 .1c-.6 0-1.1.5-1.1 1.1 0 .6.5 1.1 1.1 1.1.6 0 1.1-.5 1.1-1.1.1-.6-.4-1.1-1.1-1.1zm.8 2.8c-.7 0-1.2.5-1.2 1.2s.6 1.2 1.2 1.2c.7 0 1.2-.5 1.2-1.2s-.6-1.2-1.2-1.2zm-.8 5.2c.6 0 1.1-.5 1.1-1.1 0-.6-.5-1.1-1.1-1.1-.6 0-1.1.5-1.1 1.1 0 .6.5 1.1 1.1 1.1zm-2.2 2.1c.6 0 1.1-.5 1.1-1.1 0-.6-.5-1.1-1.1-1.1-.6 0-1.1.5-1.1 1.1 0 .6.5 1.1 1.1 1.1zm0-9.9c.6 0 1.1-.5 1.1-1.1 0-.6-.5-1.1-1.1-1.1-.6 0-1.1.5-1.1 1.1 0 .6.5 1.1 1.1 1.1zm-2.7 10.5c.5 0 .9-.4.9-.9s-.4-.9-.9-.9-.9.4-.9.9c0 .6.4.9.9.9zm0-11.4c.6 0 1.1-.5 1.1-1.1 0-.6-.5-1.1-1.1-1.1-.6 0-1.1.5-1.1 1.1-.1.6.4 1.1 1.1 1.1zm-3-1.4c-.6 0-1.1.5-1.1 1.1 0 .6.5 1.1 1.1 1.1.6 0 1.1-.5 1.1-1.1 0-.6-.5-1.1-1.1-1.1zm.4 12.1c.4 0 .7-.3.7-.7 0-.4-.3-.7-.7-.7-.4 0-.7.3-.7.7 0 .4.3.7.7.7zm70.7 4.5h6v-11.7h1.8v11.6h.7v4.7h-1.8v-2.9h-8.4v-13.4h1.8V407zm39.8-11.7l5 13.4h-1.9l-1.8-4.7h-3.6l-1.8 4.7h-1.9l5-13.4h1zm.7 7l-1.2-3.1-1.2 3.1h2.4z" fill="#0089a8"/></svg><svg height="27" viewBox="-292 383 27 27" width="27" x="2" y="139"><path d="M-278.5 410c-7.4 0-13.5-6.1-13.5-13.5s6.1-13.5 13.5-13.5 13.5 6.1 13.5 13.5-6.1 13.5-13.5 13.5zm1.1-20.3h-4c-.4 0-.9.1-1.3.2-1.5.5-2.5 1.8-2.5 3 0 1.8 1.4 3.2 3.3 3.2 0 .1-.1.3-.1.4 0 .3.1.5.2.8h-.1c-1.8 0-3.4.9-4 2.2-.2.3-.2.7-.2 1 0 .3.1.6.2.9.4.7 1.2 1.2 2.3 1.5.6.1 1.2.2 1.8.2.6 0 1.1-.1 1.6-.2 1.6-.5 2.6-1.6 2.6-3 0-1.3-.4-2.1-1.5-2.9-.5-.3-.9-.8-.9-1 0-.3 0-.4.6-.9.8-.6 1.3-1.5 1.3-2.3 0-.8-.2-1.5-.7-2h.3c.1 0 .1 0 .2-.1l.9-.7c.1-.1.2-.2.1-.4.1.2 0 .1-.1.1zm6.4 5.8c0-.2-.1-.3-.3-.3h-2.3v-2.3c0-.2-.1-.3-.3-.3h-.7c-.2 0-.3.1-.3.3v2.3h-2.3c-.2 0-.3.1-.3.3v.6c0 .2.1.3.3.3h2.3v2.3c0 .2.1.3.3.3h.7c.2 0 .3-.1.3-.3v-2.3h2.3c.2 0 .3-.1.3-.3v-.6zm-10.3-.3c-.9 0-1.7-1.1-1.9-2.2-.1-.7.1-1.3.4-1.6.2-.2.5-.4.8-.4.9 0 1.7 1 1.9 2.2.1.7-.1 1.3-.4 1.7-.2.1-.4.3-.8.3zm-.1 3.2c.3 0 .6 0 .9.1.1.1.2.1.3.2.6.4 1.1.7 1.2 1.2v.3c0 1.2-.9 1.8-2.6 1.8-1.3 0-2.3-.8-2.3-1.8-.1-1 1.1-1.8 2.5-1.8z" fill="#db3221"/></svg><svg height="26" viewBox="-292 384 26 26" width="26" x="31" y="139"><path d="M-279 384c-7.2 0-13 5.8-13 13s5.8 13 13 13 13-5.8 13-13-5.8-13-13-13zm5.8 10v.4c0 4-3 8.5-8.5 8.5-1.7 0-3.3-.5-4.6-1.3h.7c1.4 0 2.7-.5 3.7-1.3-1.3 0-2.4-.9-2.8-2.1.2 0 .4.1.6.1.3 0 .5 0 .8-.1-1.4-.3-2.4-1.5-2.4-2.9.4.2.9.4 1.4.4-.8-.5-1.3-1.5-1.3-2.5 0-.5.1-1.1.4-1.5 1.5 1.8 3.7 3 6.2 3.1-.1-.2-.1-.4-.1-.7 0-1.7 1.3-3 3-3 .9 0 1.6.4 2.2.9.7-.1 1.3-.4 1.9-.7-.2.7-.7 1.3-1.3 1.7.6-.1 1.2-.2 1.7-.5-.5.6-1 1.1-1.6 1.5z" fill="#30cdef"/></svg><svg height="26" viewBox="-292 384 26 26" width="26" x="59" y="139"><path d="M-279 410c-7.2 0-13-5.8-13-13s5.8-13 13-13 13 5.8 13 13-5.8 13-13 13zm0-22c-2.5 0-4.6 2-4.6 4.6 0 2.5 2 4.6 4.5 4.6s4.6-2 4.6-4.5c.1-2.7-1.9-4.7-4.5-4.7zm5.2 9.6c-.3-.4-.7-.6-1.2-.5-.2.1-.5.2-.7.3-2 1.4-4.8 1.3-6.8-.1-.1-.1-.2-.1-.3-.2-.6-.3-1.1-.1-1.4.3-.4.5-.3 1.1.1 1.5.1.1.3.2.4.3 1.1.8 2.3 1.2 3.8 1.3l-.2.2-3.1 3.1c-.2.2-.4.4-.4.8 0 .5.3.9.7 1.1.4.2.9.1 1.2-.2l2.4-2.4c.2-.2.3-.2.5 0l2.4 2.4c.2.2.4.4.7.4.5 0 .9-.3 1.2-.7.2-.4.1-.9-.2-1.2-1-1.1-2.1-2.1-3.1-3.1-.1-.1-.1-.1-.2-.3.8-.1 1.5-.2 2.2-.5.7-.3 1.4-.7 2-1.3.3-.3.3-.7 0-1.2zm-5.2-2.8c-1.2 0-2.2-1-2.3-2.2 0-1.3 1-2.3 2.2-2.3 1.2 0 2.2 1 2.2 2.2.1 1.3-.8 2.3-2.1 2.3z" fill="#fb890e"/></svg><svg height="25" viewBox="-292 384 26 25" width="25.1" x="87" y="139"><path d="M-279.5 384c-6.9 0-12.5 5.6-12.5 12.5s5.6 12.5 12.5 12.5 12.5-5.6 12.5-12.5c.1-6.9-5.6-12.5-12.5-12.5zm3.1 12.9h-2v7.2h-3v-7.2h-1.4v-2.6h1.4v-1.7c0-1.2.6-3 3-3h2.2v2.5h-1.6c-.3 0-.6.1-.6.7v1.5h2.3l-.3 2.6z" fill="#30488c"/></svg><svg height="25" viewBox="-292 384 26 25" width="25.1" x="115" y="139"><path d="M-279.5 384c-6.9 0-12.5 5.6-12.5 12.5s5.6 12.5 12.5 12.5 12.5-5.6 12.5-12.5c.1-6.9-5.6-12.5-12.5-12.5zm6.4 13.9c.6.6 1.2 1.1 1.7 1.7.2.3.5.6.6.9.2.5 0 1-.4 1h-2.6c-.7.1-1.2-.2-1.6-.7-.4-.4-.7-.7-1-1.1-.1-.2-.3-.3-.5-.4-.4-.2-.7-.2-.9.2-.2.4-.2.8-.3 1.2 0 .6-.2.8-.8.8-1.3.1-2.5-.1-3.7-.8-1-.6-1.8-1.4-2.5-2.3-1.3-1.8-2.3-3.8-3.3-5.8-.2-.5-.1-.7.5-.7h2.5c.3 0 .6.2.7.5.5 1.1 1 2.2 1.7 3.1.2.3.4.5.6.7.3.2.5.1.7-.2.1-.2.1-.4.1-.7.1-.8.1-1.5 0-2.3-.1-.5-.3-.8-.8-.9-.2 0-.2-.1-.1-.3.2-.2.4-.4.8-.4h2.9c.5.1.6.3.6.8v3.2c0 .2.1.7.4.8.3.1.4-.1.6-.3.7-.7 1.2-1.6 1.6-2.5.2-.4.4-.8.5-1.2.1-.3.3-.5.7-.4h3c.5.1.6.3.5.7-.2.7-.7 1.3-1.1 1.9-.5.6-1 1.3-1.4 1.9-.3.7-.2 1 .3 1.6z" fill="#49769c"/></svg><svg height="20" viewBox="-295 387 20 20" width="20" x="145" y="98"><path d="M-285 407c-5.5 0-10-4.5-10-10s4.5-10 10-10 10 4.5 10 10-4.5 10-10 10zm5.7-11.2v-2.3c0-1.2-1-2.2-2.2-2.2h-7c-1.2 0-2.2 1-2.2 2.2v7c0 1.2 1 2.2 2.2 2.2h7c1.2 0 2.2-1 2.2-2.2v-4.7zm-2.2 5.8h-7c-.6 0-1.1-.5-1.1-1.1v-4.7h1.7c-.1.4-.2.8-.2 1.2 0 1.7 1.4 3.1 3.1 3.1 1.7 0 3.1-1.4 3.1-3.1 0-.4-.1-.8-.2-1.2h1.7v4.7c0 .6-.5 1.1-1.1 1.1zm-1.1-9h2v1.9h-1.9l-.1-1.9zm-2.4 6.4c-1.1 0-2-.9-2-2 0-.4.1-.8.4-1.2.4-.5 1-.8 1.6-.8.7 0 1.3.3 1.6.8.2.3.4.7.4 1.2 0 1.1-.9 2-2 2z" fill="#f00d63"/></svg><svg height="20" viewBox="-295 387 20 20" width="20" x="142" y="139"><path d="M-285 407c-5.5 0-10-4.5-10-10s4.5-10 10-10 10 4.5 10 10-4.5 10-10 10zm5.7-11.2v-2.3c0-1.2-1-2.2-2.2-2.2h-7c-1.2 0-2.2 1-2.2 2.2v7c0 1.2 1 2.2 2.2 2.2h7c1.2 0 2.2-1 2.2-2.2v-4.7zm-2.2 5.8h-7c-.6 0-1.1-.5-1.1-1.1v-4.7h1.7c-.1.4-.2.8-.2 1.2 0 1.7 1.4 3.1 3.1 3.1 1.7 0 3.1-1.4 3.1-3.1 0-.4-.1-.8-.2-1.2h1.7v4.7c0 .6-.5 1.1-1.1 1.1zm-1.1-9h2v1.9h-1.9l-.1-1.9zm-2.4 6.4c-1.1 0-2-.9-2-2 0-.4.1-.8.4-1.2.4-.5 1-.8 1.6-.8.7 0 1.3.3 1.6.8.2.3.4.7.4 1.2 0 1.1-.9 2-2 2z" fill="#fff"/></svg><svg height="20" viewBox="-295 387 20 20" width="20" x="168" y="2"><path d="M-285 387c-5.5 0-10 4.5-10 10s4.5 10 10 10 10-4.5 10-10-4.5-10-10-10zm2.5 10.4h-1.6v5.8h-2.4v-5.8h-1.1v-2h1.1V394c0-.9.5-2.4 2.4-2.4h1.8v2h-1.3c-.2 0-.5.1-.5.6v1.2h1.8l-.2 2z" fill="#f00d63"/></svg><svg height="20" viewBox="-295 387 20 20" width="20" x="168" y="24"><path d="M-285 387c-5.5 0-10 4.5-10 10s4.5 10 10 10 10-4.5 10-10-4.5-10-10-10zm2.5 10.4h-1.6v5.8h-2.4v-5.8h-1.1v-2h1.1V394c0-.9.5-2.4 2.4-2.4h1.8v2h-1.3c-.2 0-.5.1-.5.6v1.2h1.8l-.2 2z" fill="#fff"/></svg><svg height="20" viewBox="-295 387 20 20" width="20" x="168" y="46"><path d="M-285 387c-5.5 0-10 4.5-10 10s4.5 10 10 10 10-4.5 10-10-4.5-10-10-10zm5.1 11.1c.5.5 1 .9 1.4 1.4.2.2.4.5.5.7.2.4 0 .8-.3.8h-2c-.5 0-1-.2-1.3-.5-.3-.3-.5-.6-.8-.9-.1-.1-.2-.2-.4-.3-.3-.2-.5-.1-.7.2-.2.3-.2.6-.2 1 0 .5-.2.6-.7.6-1 0-2-.1-2.9-.6-.8-.5-1.4-1.1-2-1.8-1.1-1.4-1.9-3-2.6-4.6-.2-.4 0-.6.4-.6h2c.3 0 .5.2.6.4.4.9.8 1.7 1.4 2.5.1.2.3.4.5.6.2.2.4.1.5-.2.1-.2.1-.3.1-.5.1-.6.1-1.2 0-1.9-.1-.4-.3-.6-.7-.7-.2 0-.2-.1-.1-.2.2-.2.3-.3.6-.3h2.3c.4.1.4.2.5.6v2.6c0 .1.1.6.3.7.2.1.3-.1.5-.2.6-.6.9-1.3 1.3-2 .2-.3.3-.6.4-1 .1-.2.2-.4.5-.4H-278.4c.4.1.5.2.4.6-.2.6-.5 1.1-.9 1.5-.4.5-.8 1-1.1 1.5-.4.3-.3.6.1 1z" fill="#fff"/></svg><svg height="20" viewBox="-295 387 20 20" width="20" x="168" y="68"><path d="M-285 387c-5.5 0-10 4.5-10 10s4.5 10 10 10 10-4.5 10-10-4.5-10-10-10zm5.1 11.1c.5.5 1 .9 1.4 1.4.2.2.4.5.5.7.2.4 0 .8-.3.8h-2c-.5 0-1-.2-1.3-.5-.3-.3-.5-.6-.8-.9-.1-.1-.2-.2-.4-.3-.3-.2-.5-.1-.7.2-.2.3-.2.6-.2 1 0 .5-.2.6-.7.6-1 0-2-.1-2.9-.6-.8-.5-1.4-1.1-2-1.8-1.1-1.4-1.9-3-2.6-4.6-.2-.4 0-.6.4-.6h2c.3 0 .5.2.6.4.4.9.8 1.7 1.4 2.5.1.2.3.4.5.6.2.2.4.1.5-.2.1-.2.1-.3.1-.5.1-.6.1-1.2 0-1.9-.1-.4-.3-.6-.7-.7-.2 0-.2-.1-.1-.2.2-.2.3-.3.6-.3h2.3c.4.1.4.2.5.6v2.6c0 .1.1.6.3.7.2.1.3-.1.5-.2.6-.6.9-1.3 1.3-2 .2-.3.3-.6.4-1 .1-.2.2-.4.5-.4H-278.4c.4.1.5.2.4.6-.2.6-.5 1.1-.9 1.5-.4.5-.8 1-1.1 1.5-.4.3-.3.6.1 1z" fill="#f00d63"/></svg><svg height="15" viewBox="-296 389 18 15" width="18" x="168" y="90"><path d="M-278 397.3h-14.6l5.6 5.5-1.3 1.3-6.4-6.2-1.3-1.3 1.3-1.3 6.4-6.2 1.3 1.3-5.4 5.3h14.4v1.6z" fill="#f3367d"/></svg><svg height="15" viewBox="-296 389 18 15" width="18" x="168" y="107"><path d="M-278 396.5l-1.3 1.3-6.4 6.2-1.3-1.3 5.4-5.3H-296v-1.8h14.6l-5.6-5.5 1.3-1.3 6.4 6.2 1.3 1.5z" fill="#f3367d"/></svg><svg height="17" viewBox="0 0 17 17" width="17" x="168" y="124"><path fill="#a1a1a1" fill-rule="evenodd" d="M17.01 14.457l-2.553 2.553L8.5 11.053 2.543 17.01-.01 14.457 5.947 8.5-.01 2.543 2.543-.01 8.5 5.947 14.457-.01l2.553 2.553L11.053 8.5l5.957 5.957z"/></svg><svg height="17" viewBox="-300 388 10 17" width="10" x="168" y="143"><path d="M-290 403.3l-1.7 1.7-7.9-8 .3-.3-.7-.7 7.9-8 1.7 1.7-6.5 6.6 6.9 7z" fill="#ed2a6d"/></svg></svg>