<?xml version="1.0" standalone="no"?>
<!DOCTYPE svg PUBLIC "-//W3C//DTD SVG 20010904//EN"
 "http://www.w3.org/TR/2001/REC-SVG-20010904/DTD/svg10.dtd">
<svg version="1.0" xmlns="http://www.w3.org/2000/svg"
 width="656.000000pt" height="656.000000pt" viewBox="0 0 656.000000 656.000000"
 preserveAspectRatio="xMidYMid meet">
<metadata>
Created by potrace 1.11, written by Peter Selinger 2001-2013
</metadata>
<g transform="translate(0.000000,656.000000) scale(0.100000,-0.100000)"
fill="#000000" stroke="none">
<path d="M3058 6424 c-2 -1 -34 -5 -73 -9 -165 -16 -205 -21 -245 -30 -14 -3
-43 -8 -65 -11 -51 -7 -80 -12 -80 -14 0 -2 -9 -4 -20 -5 -65 -8 -342 -90
-460 -137 -27 -11 -54 -21 -60 -22 -45 -11 -387 -179 -450 -221 -20 -14 -38
-25 -40 -25 -8 0 -242 -162 -304 -210 -138 -107 -335 -294 -431 -409 -25 -29
-55 -65 -68 -80 -47 -53 -142 -180 -142 -190 0 -5 -4 -11 -8 -13 -35 -14 -261
-420 -321 -578 -12 -30 -26 -64 -31 -75 -40 -84 -133 -408 -155 -540 -2 -11
-6 -33 -9 -50 -8 -41 -14 -81 -21 -135 -2 -25 -8 -74 -12 -110 -16 -134 -7
-599 13 -704 2 -11 6 -38 9 -61 4 -22 9 -53 12 -70 3 -16 6 -39 8 -50 3 -21
42 -188 51 -220 2 -5 10 -37 19 -70 9 -33 20 -69 25 -80 6 -11 19 -47 29 -80
144 -447 494 -968 873 -1298 34 -28 66 -57 72 -62 73 -67 335 -255 355 -255 6
0 11 -4 11 -10 0 -5 7 -10 15 -10 8 0 15 -4 15 -10 0 -5 5 -10 10 -10 6 0 27
-11 48 -24 113 -71 516 -256 558 -256 8 0 22 -4 32 -10 17 -10 163 -56 204
-64 13 -3 52 -12 88 -21 76 -19 86 -21 131 -29 19 -3 45 -8 59 -11 14 -3 41
-7 60 -10 19 -3 53 -7 75 -10 85 -12 113 -15 205 -21 122 -8 362 -8 465 0 172
14 190 16 400 52 41 7 75 15 171 40 55 14 108 28 119 30 23 4 188 60 220 73
11 5 47 19 80 31 67 25 367 169 375 179 3 4 29 19 59 35 29 15 58 31 65 36 6
5 56 39 111 76 55 37 121 84 146 105 26 22 51 39 57 39 6 0 12 4 14 8 2 5 41
42 88 82 139 121 329 320 410 429 14 19 30 39 36 46 27 27 185 269 238 363 66
118 166 326 166 345 0 7 4 17 9 22 25 27 143 419 165 550 3 17 10 55 16 85 6
30 13 75 16 100 2 25 7 61 9 80 23 167 23 541 0 705 -3 17 -7 50 -10 75 -2 25
-10 70 -15 100 -6 30 -14 66 -16 80 -3 14 -10 45 -15 70 -6 25 -12 54 -15 64
-19 93 -94 321 -151 456 -31 75 -119 259 -143 300 -105 177 -244 388 -270 410
-3 3 -19 23 -36 45 -49 66 -93 114 -229 250 -150 150 -259 243 -400 343 -55
39 -105 76 -112 82 -7 5 -14 10 -16 10 -2 0 -53 30 -113 66 -178 107 -412 215
-594 274 -36 11 -74 25 -85 30 -11 5 -47 16 -80 24 -33 8 -87 21 -121 30 -62
15 -103 25 -139 31 -11 2 -45 8 -75 14 -30 5 -79 13 -109 16 -30 4 -63 8 -73
10 -71 14 -589 30 -600 19z m457 -249 c95 -8 131 -12 165 -19 14 -2 46 -7 71
-10 79 -11 103 -16 139 -26 19 -5 75 -19 123 -31 83 -19 246 -69 292 -89 11
-4 61 -25 110 -45 223 -93 413 -200 599 -336 179 -130 263 -205 437 -385 73
-77 239 -277 239 -289 0 -3 9 -15 19 -26 10 -11 47 -66 81 -122 35 -56 70
-113 79 -127 43 -64 181 -367 181 -396 0 -8 4 -14 10 -14 5 0 9 -3 8 -7 -1 -5
14 -60 35 -123 31 -99 41 -136 62 -230 2 -8 8 -35 13 -60 18 -78 39 -228 48
-337 8 -99 9 -365 1 -463 -7 -86 -26 -238 -32 -260 -2 -8 -7 -31 -10 -50 -3
-19 -8 -47 -10 -62 -3 -15 -10 -40 -16 -55 -6 -15 -10 -29 -9 -31 4 -7 -36
-157 -57 -212 -3 -8 -7 -21 -9 -28 -5 -24 -67 -176 -77 -190 -5 -6 -7 -12 -4
-12 11 0 -114 -242 -182 -355 -60 -100 -162 -244 -225 -320 -14 -16 -40 -48
-58 -70 -40 -48 -222 -232 -295 -297 -29 -25 -98 -82 -155 -125 -276 -211
-519 -341 -878 -471 -108 -39 -351 -98 -480 -117 -197 -29 -257 -34 -455 -34
-157 0 -227 3 -310 14 -27 3 -67 8 -87 10 -21 2 -50 6 -65 9 -15 3 -44 8 -63
11 -128 19 -382 90 -540 150 -304 117 -618 300 -844 495 -144 124 -322 303
-396 400 -19 25 -38 47 -41 50 -22 17 -219 301 -219 315 0 4 -8 19 -19 33 -19
28 -117 220 -145 285 -9 20 -22 52 -30 70 -45 102 -127 373 -140 461 -4 21 -8
41 -10 45 -2 3 -7 24 -10 46 -4 22 -11 65 -16 95 -21 124 -25 196 -25 425 0
231 2 269 26 435 12 79 14 90 23 130 3 14 8 37 10 51 16 97 83 312 149 474 39
95 162 344 176 355 3 3 15 21 25 40 10 19 48 78 84 130 292 427 721 792 1195
1018 49 23 95 42 103 42 8 0 14 5 14 10 0 6 5 10 11 10 7 0 64 20 129 45 64
24 128 46 141 49 13 3 61 16 107 30 45 13 85 24 87 24 3 0 30 6 60 12 30 6 67
13 82 15 16 2 28 4 28 5 0 1 9 3 20 5 18 4 43 7 150 21 17 2 64 6 105 10 41 3
76 6 77 7 4 5 328 -1 398 -8z"/>
<path d="M3118 5955 c-2 -2 -41 -5 -88 -9 -47 -3 -96 -8 -110 -11 -14 -2 -45
-6 -70 -9 -25 -3 -77 -11 -115 -20 -39 -8 -82 -17 -95 -20 -14 -3 -52 -12 -85
-21 -33 -9 -64 -18 -70 -19 -18 -4 -149 -48 -180 -61 -237 -97 -375 -166 -524
-261 -90 -59 -92 -60 -214 -154 -126 -97 -335 -299 -423 -410 -32 -41 -63 -79
-67 -85 -39 -48 -136 -192 -137 -202 0 -6 -4 -13 -8 -15 -7 -3 -29 -40 -104
-178 -49 -90 -155 -350 -174 -425 -3 -11 -7 -27 -9 -35 -2 -8 -4 -16 -5 -17
-2 -2 -3 -6 -4 -10 -1 -5 -5 -17 -9 -28 -3 -11 -8 -31 -11 -45 -3 -14 -14 -65
-25 -115 -10 -49 -22 -110 -25 -135 -3 -25 -8 -54 -10 -65 -23 -120 -24 -464
-2 -655 9 -78 39 -238 56 -305 6 -22 13 -49 15 -60 9 -38 67 -220 80 -250 7
-16 23 -55 35 -85 43 -109 143 -299 212 -402 21 -31 38 -61 38 -67 0 -5 3 -11
8 -13 4 -2 25 -28 47 -58 22 -30 44 -60 50 -67 5 -6 21 -26 35 -44 129 -168
374 -395 585 -541 143 -99 394 -234 529 -284 162 -61 361 -121 455 -139 62
-12 200 -34 246 -40 170 -22 499 -23 655 -1 14 2 46 7 70 10 25 3 56 8 70 11
14 3 48 9 75 15 79 15 89 17 192 45 371 100 763 307 1063 562 71 61 242 232
301 303 30 36 57 67 60 70 12 11 150 209 187 270 22 36 60 103 84 150 23 47
47 88 51 91 5 3 8 9 8 13 -1 3 6 23 15 44 33 76 105 265 110 287 8 31 14 54
24 85 14 45 58 247 64 291 2 19 7 50 10 69 3 19 9 53 12 75 8 52 13 477 7 489
-3 4 -7 27 -8 50 -4 60 -14 139 -26 199 -6 28 -12 64 -14 79 -2 15 -9 46 -15
70 -7 24 -14 52 -16 62 -19 100 -118 365 -190 509 -89 177 -248 421 -345 529
-141 158 -186 204 -258 268 -46 41 -91 82 -100 90 -46 41 -201 152 -311 220
-151 94 -442 231 -546 256 -16 4 -33 10 -39 14 -8 5 -68 25 -110 36 -35 9
-244 57 -260 59 -57 9 -176 25 -220 31 -49 6 -422 14 -427 9z m1572 -1598 c48
-29 54 -36 72 -82 49 -127 -36 -245 -176 -245 -44 0 -117 49 -142 96 -83 153
97 322 246 231z m-2708 -11 c67 -14 117 -98 103 -172 -7 -38 -67 -103 -98
-106 -104 -7 -158 22 -180 100 -15 50 -10 86 18 129 18 27 88 62 113 57 10 -1
29 -5 44 -8z m-388 -115 c87 -49 114 -170 55 -255 -35 -52 -74 -71 -146 -71
-53 0 -66 4 -100 31 -68 54 -90 133 -59 207 41 98 159 140 250 88z m2596 6
c85 -41 123 -143 86 -231 -20 -47 -81 -94 -134 -102 -144 -21 -249 125 -183
254 44 86 145 121 231 79z m-1775 -10 c48 -10 76 -97 49 -153 -37 -76 -144
-82 -190 -11 -20 28 -22 48 -16 105 1 8 15 27 32 42 30 28 57 32 125 17z
m2720 -18 c47 -32 75 -87 78 -151 6 -101 -59 -168 -163 -172 -104 -4 -190 76
-190 178 0 40 27 101 57 128 55 50 157 58 218 17z m-2447 -224 c19 -7 34 -56
27 -92 -6 -32 -43 -62 -72 -57 -7 1 -20 2 -28 3 -8 0 -23 10 -33 21 -17 18
-22 54 -13 102 0 4 13 14 28 22 25 13 56 13 91 1z m1149 -66 c15 -5 41 -22 57
-37 129 -121 16 -337 -157 -300 -101 21 -163 128 -130 225 33 96 138 147 230
112z m-2610 -34 c116 -68 107 -240 -17 -306 -65 -35 -162 -14 -211 44 -42 51
-53 131 -27 187 17 34 76 89 102 95 74 15 96 13 153 -20z m4262 0 c99 -66 108
-205 19 -280 -29 -25 -84 -52 -98 -48 -3 1 -23 4 -44 7 -58 9 -99 39 -125 91
-39 78 -30 143 28 203 62 63 149 74 220 27z m-2665 -86 c19 -28 4 -74 -26 -76
-54 -4 -76 39 -38 77 26 26 45 25 64 -1z m689 -204 c15 -4 27 -11 27 -16 0 -5
5 -9 11 -9 31 0 77 -90 74 -145 -2 -51 -17 -86 -50 -119 -40 -40 -92 -59 -145
-52 -148 20 -209 205 -100 303 51 46 109 58 183 38z m-2415 -150 c83 -35 113
-87 112 -195 0 -58 -42 -126 -92 -152 -74 -38 -188 -24 -238 30 -72 78 -66
221 13 288 50 44 138 56 205 29z m4512 -7 c112 -59 141 -215 57 -306 -70 -76
-202 -77 -280 -4 -127 120 -26 343 148 328 28 -2 61 -10 75 -18z m-2397 -205
c38 -36 57 -81 57 -138 0 -57 -20 -96 -67 -132 -32 -25 -45 -28 -107 -28 -62
0 -75 3 -108 28 -153 117 -33 364 151 311 24 -7 57 -25 74 -41z m-2001 -279
c86 -45 121 -140 83 -231 -38 -91 -148 -129 -237 -83 -54 28 -67 43 -88 98
-55 149 101 289 242 216z m4267 -3 c62 -32 89 -87 92 -184 4 -108 -144 -182
-255 -127 -141 68 -124 280 25 324 53 16 87 12 138 -13z m-2639 -9 c112 -48
140 -198 55 -288 -27 -28 -92 -52 -135 -49 -54 2 -121 42 -140 83 -7 15 -17
35 -22 46 -23 43 10 139 62 184 44 38 123 49 180 24z m938 -144 c31 -31 -5
-92 -49 -81 -51 14 -43 93 9 93 15 0 33 -5 40 -12z m173 -115 c28 -17 35 -37
29 -88 -5 -50 -86 -73 -130 -37 -17 14 -23 29 -23 60 0 58 16 74 81 81 8 0 27
-7 43 -16z m-2343 -70 c50 -41 75 -86 75 -138 0 -118 -118 -205 -231 -171 -45
13 -99 69 -113 116 -20 66 -4 125 46 175 47 48 66 55 138 51 36 -2 57 -11 85
-33z m885 13 c2 2 22 -12 44 -31 49 -42 78 -107 68 -156 -3 -19 -7 -40 -7 -46
-1 -7 -5 -13 -10 -13 -4 0 -8 -5 -8 -10 0 -23 -50 -63 -100 -80 -44 -15 -58
-16 -92 -5 -139 40 -179 206 -75 303 33 31 102 51 144 42 17 -4 34 -6 36 -4z
m2598 -1 c70 -22 119 -89 123 -167 4 -83 -18 -125 -87 -158 -39 -19 -111 -29
-123 -17 -4 4 -15 7 -25 7 -29 0 -86 57 -105 105 -19 50 -14 110 12 155 18 30
77 73 107 77 11 2 22 5 24 7 5 5 47 -1 74 -9z m-849 -124 c35 -19 52 -61 45
-112 -17 -127 -215 -119 -219 9 -3 97 88 151 174 103z m-2247 -5 c15 -3 75
-39 75 -46 0 -4 9 -16 20 -27 40 -43 42 -139 4 -196 -69 -105 -237 -100 -300
9 -59 100 -13 220 100 260 27 10 45 10 101 0z m2669 -40 c66 -28 100 -131 65
-200 -24 -49 -63 -71 -127 -71 -83 0 -128 38 -143 120 -21 112 94 197 205 151z"/>
</g>
</svg>
