<svg version="1" xmlns="http://www.w3.org/2000/svg" width="874.667" height="874.667" viewBox="0 0 656.000000 656.000000"><path d="M305.8 13.6c-.2.1-3.4.5-7.3.9-16.5 1.6-20.5 2.1-24.5 3-1.4.3-4.3.8-6.5 1.1-5.1.7-8 1.2-8 1.4 0 .2-.9.4-2 .5-6.5.8-34.2 9-46 13.7-2.7 1.1-5.4 2.1-6 2.2-4.5 1.1-38.7 17.9-45 22.1-2 1.4-3.8 2.5-4 2.5-.8 0-24.2 16.2-30.4 21-13.8 10.7-33.5 29.4-43.1 40.9-2.5 2.9-5.5 6.5-6.8 8-4.7 5.3-14.2 18-14.2 19 0 .5-.4 1.1-.8 1.3-3.5 1.4-26.1 42-32.1 57.8-1.2 3-2.6 6.4-3.1 7.5-4 8.4-13.3 40.8-15.5 54-.2 1.1-.6 3.3-.9 5-.8 4.1-1.4 8.1-2.1 13.5-.2 2.5-.8 7.4-1.2 11-1.6 13.4-.7 59.9 1.3 70.4.2 1.1.6 3.8.9 6.1.4 2.2.9 5.3 1.2 7 .3 1.6.6 3.9.8 5 .3 2.1 4.2 18.8 5.1 22 .2.5 1 3.7 1.9 7 .9 3.3 2 6.9 2.5 8 .6 1.1 1.9 4.7 2.9 8 14.4 44.7 49.4 96.8 87.3 129.8 3.4 2.8 6.6 5.7 7.2 6.2 7.3 6.7 33.5 25.5 35.5 25.5.6 0 1.1.4 1.1 1 0 .5.7 1 1.5 1s1.5.4 1.5 1c0 .5.5 1 1 1 .6 0 2.7 1.1 4.8 2.4 11.3 7.1 51.6 25.6 55.8 25.6.8 0 2.2.4 3.2 1 1.7 1 16.3 5.6 20.4 6.4 1.3.3 5.2 1.2 8.8 2.1 7.6 1.9 8.6 2.1 13.1 2.9 1.9.3 4.5.8 5.9 1.1 1.4.3 4.1.7 6 1 1.9.3 5.3.7 7.5 1 8.5 1.2 11.3 1.5 20.5 2.1 12.2.8 36.2.8 46.5 0 17.2-1.4 19-1.6 40-5.2 4.1-.7 7.5-1.5 17.1-4 5.5-1.4 10.8-2.8 11.9-3 2.3-.4 18.8-6 22-7.3 1.1-.5 4.7-1.9 8-3.1 6.7-2.5 36.7-16.9 37.5-17.9.3-.4 2.9-1.9 5.9-3.5 2.9-1.5 5.8-3.1 6.5-3.6.6-.5 5.6-3.9 11.1-7.6 5.5-3.7 12.1-8.4 14.6-10.5 2.6-2.2 5.1-3.9 5.7-3.9.6 0 1.2-.4 1.4-.8.2-.5 4.1-4.2 8.8-8.2 13.9-12.1 32.9-32 41-42.9 1.4-1.9 3-3.9 3.6-4.6 2.7-2.7 18.5-26.9 23.8-36.3 6.6-11.8 16.6-32.6 16.6-34.5 0-.7.4-1.7.9-2.2 2.5-2.7 14.3-41.9 16.5-55 .3-1.7 1-5.5 1.6-8.5.6-3 1.3-7.5 1.6-10 .2-2.5.7-6.1.9-8 2.3-16.7 2.3-54.1 0-70.5-.3-1.7-.7-5-1-7.5-.2-2.5-1-7-1.5-10-.6-3-1.4-6.6-1.6-8-.3-1.4-1-4.5-1.5-7-.6-2.5-1.2-5.4-1.5-6.4-1.9-9.3-9.4-32.1-15.1-45.6-3.1-7.5-11.9-25.9-14.3-30-10.5-17.7-24.4-38.8-27-41-.3-.3-1.9-2.3-3.6-4.5-4.9-6.6-9.3-11.4-22.9-25-15-15-25.9-24.3-40-34.3-5.5-3.9-10.5-7.6-11.2-8.2-.7-.5-1.4-1-1.6-1-.2 0-5.3-3-11.3-6.6C475.6 47.7 452.2 36.9 434 31c-3.6-1.1-7.4-2.5-8.5-3-1.1-.5-4.7-1.6-8-2.4-3.3-.8-8.7-2.1-12.1-3-6.2-1.5-10.3-2.5-13.9-3.1-1.1-.2-4.5-.8-7.5-1.4-3-.5-7.9-1.3-10.9-1.6-3-.4-6.3-.8-7.3-1-7.1-1.4-58.9-3-60-1.9zm45.7 24.9c9.5.8 13.1 1.2 16.5 1.9 1.4.2 4.6.7 7.1 1C383 42.5 385.4 43 389 44c1.9.5 7.5 1.9 12.3 3.1 8.3 1.9 24.6 6.9 29.2 8.9 1.1.4 6.1 2.5 11 4.5 22.3 9.3 41.3 20 59.9 33.6 17.9 13 26.3 20.5 43.7 38.5 7.3 7.7 23.9 27.7 23.9 28.9 0 .3.9 1.5 1.9 2.6 1 1.1 4.7 6.6 8.1 12.2 3.5 5.6 7 11.3 7.9 12.7 4.3 6.4 18.1 36.7 18.1 39.6 0 .8.4 1.4 1 1.4.5 0 .9.3.8.7-.1.5 1.4 6 3.5 12.3 3.1 9.9 4.1 13.6 6.2 23 .2.8.8 3.5 1.3 6 1.8 7.8 3.9 22.8 4.8 33.7.8 9.9.9 36.5.1 46.3-.7 8.6-2.6 23.8-3.2 26-.2.8-.7 3.1-1 5-.3 1.9-.8 4.7-1 6.2-.3 1.5-1 4-1.6 5.5-.6 1.5-1 2.9-.9 3.1.4.7-3.6 15.7-5.7 21.2-.3.8-.7 2.1-.9 2.8-.5 2.4-6.7 17.6-7.7 19-.5.6-.7 1.2-.4 1.2 1.1 0-11.4 24.2-18.2 35.5-6 10-16.2 24.4-22.5 32-1.4 1.6-4 4.8-5.8 7-4 4.8-22.2 23.2-29.5 29.7-2.9 2.5-9.8 8.2-15.5 12.5-27.6 21.1-51.9 34.1-87.8 47.1-10.8 3.9-35.1 9.8-48 11.7-19.7 2.9-25.7 3.4-45.5 3.4-15.7 0-22.7-.3-31-1.4-2.7-.3-6.7-.8-8.7-1-2.1-.2-5-.6-6.5-.9-1.5-.3-4.4-.8-6.3-1.1-12.8-1.9-38.2-9-54-15-30.4-11.7-61.8-30-84.4-49.5-14.4-12.4-32.2-30.3-39.6-40-1.9-2.5-3.8-4.7-4.1-5-2.2-1.7-21.9-30.1-21.9-31.5 0-.4-.8-1.9-1.9-3.3-1.9-2.8-11.7-22-14.5-28.5-.9-2-2.2-5.2-3-7-4.5-10.2-12.7-37.3-14-46.1-.4-2.1-.8-4.1-1-4.5-.2-.3-.7-2.4-1-4.6-.4-2.2-1.1-6.5-1.6-9.5-2.1-12.4-2.5-19.6-2.5-42.5 0-23.1.2-26.9 2.6-43.5 1.2-7.9 1.4-9 2.3-13 .3-1.4.8-3.7 1-5.1 1.6-9.7 8.3-31.2 14.9-47.4 3.9-9.5 16.2-34.4 17.6-35.5.3-.3 1.5-2.1 2.5-4s4.8-7.8 8.4-13c29.2-42.7 72.1-79.2 119.5-101.8 4.9-2.3 9.5-4.2 10.3-4.2.8 0 1.4-.5 1.4-1 0-.6.5-1 1.1-1 .7 0 6.4-2 12.9-4.5 6.4-2.4 12.8-4.6 14.1-4.9 1.3-.3 6.1-1.6 10.7-3 4.5-1.3 8.5-2.4 8.7-2.4.3 0 3-.6 6-1.2s6.7-1.3 8.2-1.5c1.6-.2 2.8-.4 2.8-.5 0-.1.9-.3 2-.5 1.8-.4 4.3-.7 15-2.1 1.7-.2 6.4-.6 10.5-1 4.1-.3 7.6-.6 7.7-.7.4-.5 32.8.1 39.8.8z"/><path d="M311.8 60.5c-.2.2-4.1.5-8.8.9-4.7.3-9.6.8-11 1.1-1.4.2-4.5.6-7 .9-2.5.3-7.7 1.1-11.5 2-3.9.8-8.2 1.7-9.5 2-1.4.3-5.2 1.2-8.5 2.1-3.3.9-6.4 1.8-7 1.9-1.8.4-14.9 4.8-18 6.1-23.7 9.7-37.5 16.6-52.4 26.1-9 5.9-9.2 6-21.4 15.4-12.6 9.7-33.5 29.9-42.3 41-3.2 4.1-6.3 7.9-6.7 8.5-3.9 4.8-13.6 19.2-13.7 20.2 0 .6-.4 1.3-.8 1.5-.7.3-2.9 4-10.4 17.8-4.9 9-15.5 35-17.4 42.5-.3 1.1-.7 2.7-.9 3.5-.2.8-.4 1.6-.5 1.7-.2.2-.3.6-.4 1-.1.5-.5 1.7-.9 2.8-.3 1.1-.8 3.1-1.1 4.5-.3 1.4-1.4 6.5-2.5 11.5-1 4.9-2.2 11-2.5 13.5-.3 2.5-.8 5.4-1 6.5-2.3 12-2.4 46.4-.2 65.5.9 7.8 3.9 23.8 5.6 30.5.6 2.2 1.3 4.9 1.5 6 .9 3.8 6.7 22 8 25 .7 1.6 2.3 5.5 3.5 8.5 4.3 10.9 14.3 29.9 21.2 40.2 2.1 3.1 3.8 6.1 3.8 6.7 0 .5.3 1.1.8 1.3.4.2 2.5 2.8 4.7 5.8s4.4 6 5 6.7c.5.6 2.1 2.6 3.5 4.4 12.9 16.8 37.4 39.5 58.5 54.1 14.3 9.9 39.4 23.4 52.9 28.4 16.2 6.1 36.1 12.1 45.5 13.9 6.2 1.2 20 3.4 24.6 4 17 2.2 49.9 2.3 65.5.1 1.4-.2 4.6-.7 7-1 2.5-.3 5.6-.8 7-1.1 1.4-.3 4.8-.9 7.5-1.5 7.9-1.5 8.9-1.7 19.2-4.5 37.1-10 76.3-30.7 106.3-56.2 7.1-6.1 24.2-23.2 30.1-30.3 3-3.6 5.7-6.7 6-7 1.2-1.1 15-20.9 18.7-27 2.2-3.6 6-10.3 8.4-15 2.3-4.7 4.7-8.8 5.1-9.1.5-.3.8-.9.8-1.3-.1-.3.6-2.3 1.5-4.4 3.3-7.6 10.5-26.5 11-28.7.8-3.1 1.4-5.4 2.4-8.5 1.4-4.5 5.8-24.7 6.4-29.1.2-1.9.7-5 1-6.9.3-1.9.9-5.3 1.2-7.5.8-5.2 1.3-47.7.7-48.9-.3-.4-.7-2.7-.8-5-.4-6-1.4-13.9-2.6-19.9-.6-2.8-1.2-6.4-1.4-7.9-.2-1.5-.9-4.6-1.5-7-.7-2.4-1.4-5.2-1.6-6.2-1.9-10-11.8-36.5-19-50.9-8.9-17.7-24.8-42.1-34.5-52.9-14.1-15.8-18.6-20.4-25.8-26.8-4.6-4.1-9.1-8.2-10-9-4.6-4.1-20.1-15.2-31.1-22-15.1-9.4-44.2-23.1-54.6-25.6-1.6-.4-3.3-1-3.9-1.4-.8-.5-6.8-2.5-11-3.6-3.5-.9-24.4-5.7-26-5.9-5.7-.9-17.6-2.5-22-3.1-4.9-.6-42.2-1.4-42.7-.9zM469 220.3c4.8 2.9 5.4 3.6 7.2 8.2 4.9 12.7-3.6 24.5-17.6 24.5-4.4 0-11.7-4.9-14.2-9.6-8.3-15.3 9.7-32.2 24.6-23.1zm-270.8 1.1c6.7 1.4 11.7 9.8 10.3 17.2-.7 3.8-6.7 10.3-9.8 10.6-10.4.7-15.8-2.2-18-10-1.5-5-1-8.6 1.8-12.9 1.8-2.7 8.8-6.2 11.3-5.7 1 .1 2.9.5 4.4.8zm-38.8 11.5c8.7 4.9 11.4 17 5.5 25.5-3.5 5.2-7.4 7.1-14.6 7.1-5.3 0-6.6-.4-10-3.1-6.8-5.4-9-13.3-5.9-20.7 4.1-9.8 15.9-14 25-8.8zm259.6-.6c8.5 4.1 12.3 14.3 8.6 23.1-2 4.7-8.1 9.4-13.4 10.2-14.4 2.1-24.9-12.5-18.3-25.4 4.4-8.6 14.5-12.1 23.1-7.9zm-177.5 1c4.8 1 7.6 9.7 4.9 15.3-3.7 7.6-14.4 8.2-19 1.1-2-2.8-2.2-4.8-1.6-10.5.1-.8 1.5-2.7 3.2-4.2 3-2.8 5.7-3.2 12.5-1.7zm272 1.8c4.7 3.2 7.5 8.7 7.8 15.1.6 10.1-5.9 16.8-16.3 17.2-10.4.4-19-7.6-19-17.8 0-4 2.7-10.1 5.7-12.8 5.5-5 15.7-5.8 21.8-1.7zm-244.7 22.4c1.9.7 3.4 5.6 2.7 9.2-.6 3.2-4.3 6.2-7.2 5.7-.7-.1-2-.2-2.8-.3-.8 0-2.3-1-3.3-2.1-1.7-1.8-2.2-5.4-1.3-10.2 0-.4 1.3-1.4 2.8-2.2 2.5-1.3 5.6-1.3 9.1-.1zm114.9 6.6c1.5.5 4.1 2.2 5.7 3.7 12.9 12.1 1.6 33.7-15.7 30-10.1-2.1-16.3-12.8-13-22.5 3.3-9.6 13.8-14.7 23-11.2zm-261 3.4c11.6 6.8 10.7 24-1.7 30.6-6.5 3.5-16.2 1.4-21.1-4.4-4.2-5.1-5.3-13.1-2.7-18.7 1.7-3.4 7.6-8.9 10.2-9.5 7.4-1.5 9.6-1.3 15.3 2zm426.2 0c9.9 6.6 10.8 20.5 1.9 28-2.9 2.5-8.4 5.2-9.8 4.8-.3-.1-2.3-.4-4.4-.7-5.8-.9-9.9-3.9-12.5-9.1-3.9-7.8-3-14.3 2.8-20.3 6.2-6.3 14.9-7.4 22-2.7zm-266.5 8.6c1.9 2.8.4 7.4-2.6 7.6-5.4.4-7.6-3.9-3.8-7.7 2.6-2.6 4.5-2.5 6.4.1zm68.9 20.4c1.5.4 2.7 1.1 2.7 1.6s.5.9 1.1.9c3.1 0 7.7 9 7.4 14.5-.2 5.1-1.7 8.6-5 11.9-4 4-9.2 5.9-14.5 5.2-14.8-2-20.9-20.5-10-30.3 5.1-4.6 10.9-5.8 18.3-3.8zm-241.5 15c8.3 3.5 11.3 8.7 11.2 19.5 0 5.8-4.2 12.6-9.2 15.2-7.4 3.8-18.8 2.4-23.8-3-7.2-7.8-6.6-22.1 1.3-28.8 5-4.4 13.8-5.6 20.5-2.9zm451.2.7c11.2 5.9 14.1 21.5 5.7 30.6-7 7.6-20.2 7.7-28 .4-12.7-12-2.6-34.3 14.8-32.8 2.8.2 6.1 1 7.5 1.8zm-239.7 20.5c3.8 3.6 5.7 8.1 5.7 13.8 0 5.7-2 9.6-6.7 13.2-3.2 2.5-4.5 2.8-10.7 2.8-6.2 0-7.5-.3-10.8-2.8-15.3-11.7-3.3-36.4 15.1-31.1 2.4.7 5.7 2.5 7.4 4.1zm-200.1 27.9c8.6 4.5 12.1 14 8.3 23.1-3.8 9.1-14.8 12.9-23.7 8.3-5.4-2.8-6.7-4.3-8.8-9.8-5.5-14.9 10.1-28.9 24.2-21.6zm426.7.3c6.2 3.2 8.9 8.7 9.2 18.4.4 10.8-14.4 18.2-25.5 12.7-14.1-6.8-12.4-28 2.5-32.4 5.3-1.6 8.7-1.2 13.8 1.3zm-263.9.9c11.2 4.8 14 19.8 5.5 28.8-2.7 2.8-9.2 5.2-13.5 4.9-5.4-.2-12.1-4.2-14-8.3-.7-1.5-1.7-3.5-2.2-4.6-2.3-4.3 1-13.9 6.2-18.4 4.4-3.8 12.3-4.9 18-2.4zm93.8 14.4c3.1 3.1-.5 9.2-4.9 8.1-5.1-1.4-4.3-9.3.9-9.3 1.5 0 3.3.5 4 1.2zm17.3 11.5c2.8 1.7 3.5 3.7 2.9 8.8-.5 5-8.6 7.3-13 3.7-1.7-1.4-2.3-2.9-2.3-6 0-5.8 1.6-7.4 8.1-8.1.8 0 2.7.7 4.3 1.6zm-234.3 7c5 4.1 7.5 8.6 7.5 13.8 0 11.8-11.8 20.5-23.1 17.1-4.5-1.3-9.9-6.9-11.3-11.6-2-6.6-.4-12.5 4.6-17.5 4.7-4.8 6.6-5.5 13.8-5.1 3.6.2 5.7 1.1 8.5 3.3zm88.5-1.3c.2-.2 2.2 1.2 4.4 3.1 4.9 4.2 7.8 10.7 6.8 15.6-.3 1.9-.7 4-.7 4.6-.1.7-.5 1.3-1 1.3-.4 0-.8.5-.8 1 0 2.3-5 6.3-10 8-4.4 1.5-5.8 1.6-9.2.5-13.9-4-17.9-20.6-7.5-30.3 3.3-3.1 10.2-5.1 14.4-4.2 1.7.4 3.4.6 3.6.4zm259.8.1c7 2.2 11.9 8.9 12.3 16.7.4 8.3-1.8 12.5-8.7 15.8-3.9 1.9-11.1 2.9-12.3 1.7-.4-.4-1.5-.7-2.5-.7-2.9 0-8.6-5.7-10.5-10.5-1.9-5-1.4-11 1.2-15.5 1.8-3 7.7-7.3 10.7-7.7 1.1-.2 2.2-.5 2.4-.7.5-.5 4.7.1 7.4.9zm-84.9 12.4c3.5 1.9 5.2 6.1 4.5 11.2-1.7 12.7-21.5 11.9-21.9-.9-.3-9.7 8.8-15.1 17.4-10.3zm-224.7.5c1.5.3 7.5 3.9 7.5 4.6 0 .4.9 1.6 2 2.7 4 4.3 4.2 13.9.4 19.6-6.9 10.5-23.7 10-30-.9-5.9-10-1.3-22 10-26 2.7-1 4.5-1 10.1 0zm266.9 4c6.6 2.8 10 13.1 6.5 20-2.4 4.9-6.3 7.1-12.7 7.1-8.3 0-12.8-3.8-14.3-12-2.1-11.2 9.4-19.7 20.5-15.1z"/></svg>